<svg xmlns="http://www.w3.org/2000/svg" xmlns:v="https://svgstorm.com"
viewBox = "0 0 600 600"
width="600"
height="600">
<g fill="None" fill-opacity="0.0" stroke="#F8F3ED" stroke-opacity="1.00" stroke-width="0.3"><path d="
M 0.00 600.00 
L 600.00 600.00
L 600.00 0.00
L 0.00 0.00
L 0.00 600.00
M 209.00 74.00 
C 235.59 74.00 260.11 86.01 280.00 103.00
C 286.85 108.86 292.39 115.56 297.00 123.00
C 298.30 125.09 299.00 126.89 300.00 129.00
C 301.70 131.86 303.42 134.90 305.00 138.00
C 305.85 139.26 306.25 140.70 307.00 142.00
C 308.77 142.21 310.37 140.46 311.00 139.00
C 314.04 135.45 317.04 131.53 320.00 128.00
C 337.05 102.11 375.57 89.00 405.00 89.00
C 408.77 88.63 413.29 88.64 417.00 89.00
C 445.36 89.00 471.43 98.55 494.00 115.00
C 502.34 121.08 510.25 129.10 517.00 137.00
C 541.03 165.11 552.00 201.00 552.00 238.00
C 552.37 241.77 552.36 246.29 552.00 250.00
C 552.00 252.67 552.00 255.33 552.00 258.00
C 552.00 261.10 551.23 264.64 551.00 267.00
C 551.00 317.09 521.33 365.16 494.00 405.00
C 491.92 408.04 489.22 410.30 487.00 413.00
C 485.82 414.95 484.61 417.11 483.00 419.00
C 469.22 435.13 454.40 451.99 438.00 466.00
C 434.67 468.84 431.43 471.55 428.00 474.00
C 424.62 476.83 421.38 480.11 418.00 483.00
C 398.50 499.67 380.83 510.08 359.30 524.30 C 337.77 538.53 312.50 553.44 286.00 542.00
C 280.05 539.43 274.46 535.98 269.00 533.00
C 254.48 526.73 241.50 517.36 228.00 509.00
C 224.04 506.55 220.62 503.59 217.00 501.00
C 202.44 492.80 187.93 482.05 175.00 471.00
C 171.53 468.03 167.64 465.78 165.00 462.00
C 164.68 461.76 164.00 462.00 164.00 462.00
C 154.57 457.39 147.95 447.03 139.75 440.25 C 131.56 433.46 123.82 423.98 117.00 416.00
C 110.08 407.90 103.34 399.81 98.00 391.00
C 95.69 387.99 93.13 385.30 91.00 382.00
C 85.48 373.45 80.00 365.26 76.00 356.00
C 74.06 352.44 71.71 348.96 70.00 345.00
C 58.05 317.31 46.00 288.14 46.00 257.00
C 45.67 253.60 45.00 249.08 45.00 245.00
C 45.00 238.67 45.00 232.33 45.00 226.00
C 45.00 222.90 45.77 219.36 46.00 217.00
C 46.00 193.90 54.11 170.75 65.00 151.00
C 66.83 147.69 69.02 144.92 71.00 142.00
C 74.03 136.38 77.70 131.04 82.00 126.00
C 86.84 120.33 92.38 114.80 98.00 110.00
C 100.66 107.73 103.25 105.67 106.00 104.00
C 110.98 100.19 115.58 96.36 121.00 93.00
C 138.83 81.96 161.68 74.00 183.00 74.00
C 191.18 73.21 200.89 73.22 209.00 74.00 Z"/>
</g>
<g fill="None" fill-opacity="0.0" stroke="#003D4C" stroke-opacity="1.00" stroke-width="0.3"><path d="
M 183.00 74.00 
C 191.67 74.00 200.33 74.00 209.00 74.00
C 200.89 73.22 191.18 73.21 183.00 74.00 Z"/>
</g>
<g fill="None" fill-opacity="0.0" stroke="#07616B" stroke-opacity="1.00" stroke-width="0.3"><path d="
M 121.00 93.00 
C 116.26 96.67 111.28 100.80 106.00 104.00
C 103.25 105.67 100.66 107.73 98.00 110.00
C 92.75 115.25 87.20 120.80 82.00 126.00
C 77.70 131.04 74.03 136.38 71.00 142.00
C 69.23 145.29 66.96 148.14 65.00 151.00
C 54.11 170.75 46.00 193.90 46.00 217.00
C 46.00 220.10 45.23 223.64 45.00 226.00
C 45.00 232.33 45.00 238.67 45.00 245.00
C 45.33 248.40 46.00 252.92 46.00 257.00
C 46.00 288.14 58.05 317.31 70.00 345.00
C 72.01 348.46 74.33 352.14 76.00 356.00
C 80.00 365.26 85.48 373.45 91.00 382.00
C 93.43 384.99 95.94 387.60 98.00 391.00
C 103.34 399.81 110.08 407.90 117.00 416.00
C 124.71 423.71 132.45 430.95 139.75 439.25 C 147.06 447.55 157.72 453.00 164.00 462.00
C 164.00 462.00 164.68 461.76 165.00 462.00
C 168.71 464.84 171.73 467.73 175.00 471.00
C 187.93 482.05 202.44 492.80 217.00 501.00
C 221.02 503.26 224.55 506.33 228.00 509.00
C 241.50 517.36 254.48 526.73 269.00 533.00
C 274.88 535.54 280.69 538.91 286.00 542.00
C 312.50 553.44 337.77 538.53 359.30 524.30 C 380.83 510.08 398.50 499.67 418.00 483.00
C 421.25 479.75 424.25 476.68 428.00 474.00
C 431.43 471.55 434.67 468.84 438.00 466.00
C 453.34 450.66 468.01 433.99 483.00 419.00
C 484.61 417.11 485.82 414.95 487.00 413.00
C 488.98 409.74 491.61 407.75 494.00 405.00
C 521.33 365.16 551.00 317.09 551.00 267.00
C 551.00 263.90 551.77 260.36 552.00 258.00
C 552.00 255.33 552.00 252.67 552.00 250.00
C 552.00 246.00 552.00 242.00 552.00 238.00
C 552.00 201.00 541.03 165.11 517.00 137.00
C 509.55 129.55 501.54 121.97 494.00 115.00
C 471.43 98.55 445.36 89.00 417.00 89.00
C 413.00 89.00 409.00 89.00 405.00 89.00
C 375.57 89.00 337.05 102.11 320.00 128.00
C 317.34 132.03 314.63 135.89 311.00 139.00
C 310.37 140.46 308.77 142.21 307.00 142.00
C 306.25 140.70 305.85 139.26 305.00 138.00
C 303.14 135.26 301.49 132.15 300.00 129.00
C 299.00 126.89 298.30 125.09 297.00 123.00
C 291.87 116.37 286.13 109.13 280.00 103.00
C 260.11 86.01 235.59 74.00 209.00 74.00
C 200.33 74.00 191.67 74.00 183.00 74.00
C 161.68 74.00 138.83 81.96 121.00 93.00
M 248.00 104.00 
C 248.19 104.32 248.67 104.83 249.00 105.00
C 256.33 103.47 267.35 115.72 273.75 122.25 C 280.15 128.78 287.91 140.52 290.32 150.68 C 292.73 160.83 302.47 168.14 311.08 173.92 C 319.69 179.71 335.66 181.69 342.00 186.00
C 343.11 186.75 344.30 187.39 346.00 187.00
C 345.88 201.19 355.68 215.39 371.00 215.00
C 366.60 233.33 354.51 250.80 338.00 261.00
C 326.64 253.37 323.04 246.96 308.98 243.02 C 294.91 239.09 290.75 259.94 293.00 272.00
C 291.24 272.05 289.93 270.47 288.00 271.00
C 277.10 271.99 263.88 268.31 253.32 263.68 C 242.77 259.05 229.00 255.26 218.31 261.31 C 207.61 267.35 203.38 275.01 198.08 285.08 C 192.77 295.14 190.25 309.59 188.00 318.00
C 186.31 331.95 186.17 345.32 189.00 359.00
C 190.51 362.88 193.52 371.97 195.78 378.22 C 198.03 384.48 201.53 391.29 204.77 397.23 C 208.01 403.17 212.52 408.97 216.75 414.25 C 220.99 419.53 225.46 423.90 230.25 428.75 C 235.04 433.61 239.79 437.83 244.75 442.25 C 249.72 446.66 256.07 450.94 261.08 454.92 C 266.09 458.90 273.22 462.81 278.08 465.92 C 282.94 469.04 291.86 473.87 295.75 476.25 C 299.63 478.64 314.18 484.26 313.00 486.00
C 312.77 486.34 313.00 487.00 313.00 487.00
C 315.31 490.71 302.91 498.50 298.92 501.92 C 294.92 505.34 286.16 511.10 280.30 514.30 C 274.45 517.50 265.85 510.56 259.92 507.08 C 253.99 503.60 246.91 498.93 240.77 495.23 C 234.63 491.53 228.35 486.78 222.25 482.75 C 216.16 478.71 209.93 474.26 203.92 470.08 C 197.90 465.90 192.59 460.64 186.75 456.25 C 180.91 451.85 175.20 447.30 169.75 442.25 C 164.30 437.20 158.62 433.01 153.25 427.75 C 147.88 422.50 143.15 417.25 138.25 411.75 C 133.34 406.26 128.14 401.07 123.75 395.25 C 119.37 389.43 115.14 383.05 110.70 377.30 C 106.25 371.56 101.96 364.27 100.00 359.00
C 84.74 334.35 73.85 307.19 68.00 279.00
C 82.03 289.38 100.60 295.88 118.00 292.00
C 117.54 292.16 123.10 290.39 128.67 288.67 C 134.24 286.95 134.54 286.21 141.08 282.08 C 147.63 277.95 155.23 269.27 158.30 262.31 C 161.38 255.34 162.54 255.64 163.78 249.78 C 165.01 243.91 166.76 238.25 167.00 238.00
C 167.17 237.26 167.89 236.26 168.00 235.00
C 167.50 225.20 166.49 210.74 165.00 201.00 C 163.51 191.26 160.40 178.62 158.02 169.98 C 155.65 161.33 154.97 146.70 143.99 147.01 C 133.02 147.31 139.56 169.71 140.00 175.00
C 144.53 195.47 150.83 221.17 146.07 242.07 C 141.31 262.97 123.09 277.22 102.00 273.00
C 92.52 272.56 83.09 268.78 75.75 260.25 C 68.41 251.71 64.90 241.60 64.02 229.98 C 63.15 218.35 65.23 202.71 67.93 191.93 C 70.62 181.14 74.83 171.29 79.77 161.77 C 84.72 152.25 90.28 145.20 97.25 137.25 C 104.21 129.30 110.24 122.88 118.70 116.70 C 127.15 110.52 135.26 104.95 145.23 101.23 C 155.20 97.51 167.25 93.12 178.01 92.01 C 188.76 90.89 207.63 89.32 217.22 92.78 C 226.82 96.24 242.61 94.90 248.00 104.00
M 528.00 201.00 
C 529.36 206.42 531.13 212.87 532.00 218.00
C 532.08 218.18 534.81 226.69 534.78 233.22 C 534.75 239.75 535.63 248.70 535.00 256.00 C 534.37 263.30 533.46 268.00 532.07 276.07 C 530.68 284.14 532.06 285.89 528.22 295.22 C 524.38 304.55 523.76 321.56 516.00 329.00
C 515.74 329.25 515.21 329.70 515.00 330.00
C 516.28 334.91 509.80 345.07 507.22 350.22 C 504.65 355.38 499.90 365.07 496.23 369.23 C 492.56 373.39 489.46 385.94 484.00 387.00
C 483.71 387.06 483.22 386.30 483.00 386.00
C 478.54 379.95 483.11 365.43 480.07 357.93 C 477.03 350.43 477.51 340.69 473.68 333.32 C 469.84 325.96 467.72 320.39 462.25 313.75 C 456.78 307.11 461.55 293.30 459.67 285.33 C 457.79 277.36 457.83 266.54 454.68 259.32 C 451.53 252.10 449.11 243.59 445.69 237.31 C 442.28 231.02 439.36 219.97 431.00 221.00 C 422.64 222.04 417.96 228.03 411.75 232.75 C 405.55 237.47 402.06 243.16 396.75 248.75 C 391.44 254.34 389.36 260.79 383.75 266.75 C 378.14 272.71 364.19 269.16 357.00 270.00
C 361.89 262.31 371.42 254.73 375.77 246.77 C 380.12 238.81 380.29 239.47 383.31 233.31 C 386.32 227.14 387.16 223.31 388.93 217.93 C 390.69 212.55 391.49 204.07 393.00 205.00
C 393.65 201.02 394.65 195.67 394.00 191.00
C 393.40 188.97 389.79 179.71 385.25 175.75 C 380.71 171.80 370.87 171.02 364.00 171.00 C 357.13 170.98 346.87 170.63 339.93 169.07 C 332.98 167.51 325.60 165.75 319.00 163.00
C 326.85 138.84 352.17 117.45 376.00 113.00
C 376.35 112.87 376.79 112.30 377.00 112.00
C 382.10 104.79 398.50 107.80 407.02 106.02 C 415.55 104.25 430.47 108.35 439.22 109.78 C 447.98 111.20 458.02 115.22 466.07 118.93 C 474.13 122.63 480.83 128.71 488.23 133.77 C 495.63 138.83 499.96 145.51 505.75 152.25 C 511.54 158.98 515.43 166.27 519.77 174.23 C 524.12 182.19 527.32 192.85 528.00 201.00
M 317.00 525.00 
C 316.65 525.13 316.25 525.75 316.00 526.00
C 312.82 529.25 300.23 528.61 299.00 527.00
C 298.36 526.83 298.24 525.84 297.00 526.00
C 294.74 526.30 293.43 527.15 294.00 523.00
C 312.05 514.99 325.99 498.72 339.00 484.00
C 339.32 483.80 339.83 483.33 340.00 483.00
C 338.84 477.42 345.97 470.30 345.99 462.99 C 346.01 455.68 344.48 446.62 337.75 442.25 C 331.03 437.88 324.50 435.48 316.98 435.02 C 309.46 434.57 300.87 431.17 294.92 428.08 C 288.98 424.98 282.63 419.80 279.25 415.75 C 275.86 411.70 266.41 401.49 270.00 398.00
C 270.05 398.15 271.00 398.00 271.00 398.00
C 274.00 396.03 281.44 399.32 284.75 394.75 C 288.07 390.18 292.51 387.47 291.00 381.00
C 282.77 383.56 266.36 380.36 273.75 372.75 C 281.15 365.14 284.02 362.27 286.78 353.78 C 289.53 345.28 292.40 338.61 296.31 331.31 C 300.21 324.00 303.46 318.89 309.25 313.25 C 315.04 307.60 320.15 302.87 327.23 299.23 C 334.31 295.59 341.49 291.06 349.68 289.68 C 357.87 288.30 367.77 283.52 377.00 286.00 C 386.23 288.48 393.82 284.78 397.31 276.31 C 400.79 267.83 406.89 265.25 411.25 258.25 C 415.60 251.25 420.19 246.27 427.00 242.00
C 436.05 253.41 437.60 266.23 441.00 280.00 C 444.40 293.77 439.46 312.97 448.75 324.25 C 458.04 335.53 461.26 348.02 463.99 362.01 C 466.72 375.99 464.98 395.46 460.02 408.02 C 455.07 420.59 448.78 430.15 439.75 439.75 C 430.72 449.35 421.19 456.17 411.75 464.75 C 402.32 473.34 392.54 480.14 382.30 487.30 C 372.07 494.47 361.73 501.86 350.92 507.92 C 340.12 513.99 328.52 524.10 317.00 525.00
M 314.00 287.00 
C 310.93 285.57 311.01 270.99 313.00 269.00
C 315.10 266.90 326.64 277.81 327.00 281.00
C 322.75 283.29 318.89 286.31 314.00 287.00
M 296.00 290.00 
C 300.87 301.24 290.07 309.77 284.08 319.08 C 278.09 328.40 274.23 341.02 270.02 351.02 C 265.82 361.02 252.78 364.70 250.22 376.22 C 247.67 387.75 250.49 403.93 256.31 413.69 C 262.12 423.46 267.86 431.55 277.25 437.75 C 286.63 443.95 298.69 450.60 310.00 451.00 C 321.31 451.39 337.96 460.65 325.00 470.00
C 308.88 464.68 293.12 455.59 279.25 445.75 C 265.39 435.91 253.04 426.61 240.75 414.25 C 228.46 401.89 219.96 388.32 212.23 372.77 C 204.50 357.22 203.55 328.18 206.99 311.99 C 210.43 295.81 219.67 270.96 239.07 275.93 C 258.48 280.89 275.15 290.47 296.00 290.00 Z"/>
</g>
<g fill="None" fill-opacity="0.0" stroke="#002C3A" stroke-opacity="1.00" stroke-width="0.3"><path d="
M 405.00 89.00 
C 409.00 89.00 413.00 89.00 417.00 89.00
C 413.29 88.64 408.77 88.63 405.00 89.00 Z"/>
</g>
<g fill="None" fill-opacity="0.0" stroke="#044B59" stroke-opacity="1.00" stroke-width="0.3"><path d="
M 102.00 273.00 
C 81.39 268.88 66.43 252.41 66.00 231.00
C 65.42 226.22 65.55 220.69 66.00 216.00
C 66.00 127.71 170.45 65.85 248.00 104.00
C 242.61 94.90 226.82 96.24 217.22 92.78 C 207.63 89.32 188.76 90.89 178.01 92.01 C 167.25 93.12 155.20 97.51 145.23 101.23 C 135.26 104.95 127.15 110.52 118.70 116.70 C 110.24 122.88 104.21 129.30 97.25 137.25 C 90.28 145.20 84.72 152.25 79.77 161.77 C 74.83 171.29 70.62 181.14 67.93 191.93 C 65.23 202.71 63.15 218.35 64.02 229.98 C 64.90 241.60 68.41 251.71 75.75 260.25 C 83.09 268.78 92.52 272.56 102.00 273.00 Z"/>
</g>
<g fill="None" fill-opacity="0.0" stroke="#66C1BC" stroke-opacity="1.00" stroke-width="0.3"><path d="
M 66.00 216.00 
C 66.00 221.00 65.90 226.00 66.00 231.00
C 66.43 252.41 81.39 268.88 102.00 273.00
C 123.09 277.22 141.31 262.97 146.07 242.07 C 150.83 221.17 144.53 195.47 140.00 175.00
C 138.50 168.23 129.94 149.72 141.23 146.23 C 152.52 142.74 157.45 157.66 158.93 167.07 C 160.41 176.49 164.46 187.63 165.93 198.07 C 167.40 208.52 168.97 223.66 168.00 235.00
C 167.89 236.26 167.17 237.26 167.00 238.00
C 163.99 251.48 161.65 263.07 151.75 273.75 C 141.86 284.43 131.91 289.74 118.00 292.00
C 100.60 295.88 82.03 289.38 68.00 279.00
C 73.85 307.19 84.74 334.35 100.00 359.00
C 106.19 369.00 113.00 378.62 119.92 388.08 C 126.84 397.54 134.86 406.49 142.75 415.25 C 150.65 424.01 159.14 431.35 167.75 439.25 C 176.36 447.14 186.09 454.50 195.25 461.75 C 204.40 469.00 214.75 476.09 224.23 482.77 C 233.71 489.45 244.51 495.91 254.08 501.92 C 263.65 507.92 276.47 519.21 285.70 509.70 C 294.93 500.19 307.02 499.21 313.00 487.00
C 313.00 487.00 312.77 486.34 313.00 486.00
C 286.01 470.50 260.28 459.40 236.75 437.25 C 213.22 415.10 195.44 390.12 189.00 359.00
C 186.17 345.32 186.31 331.95 188.00 318.00
C 190.50 297.32 196.59 270.16 218.08 260.08 C 239.58 250.00 265.56 268.75 288.00 271.00
C 289.93 270.47 291.24 272.05 293.00 272.00
C 290.75 259.94 294.91 239.09 308.98 243.02 C 323.04 246.96 326.64 253.37 338.00 261.00
C 354.51 250.80 366.60 233.33 371.00 215.00
C 355.68 215.39 345.88 201.19 346.00 187.00
C 344.30 187.39 343.11 186.75 342.00 186.00
C 323.46 179.49 295.97 173.64 289.22 151.78 C 282.48 129.91 268.68 114.81 249.00 105.00
C 248.67 104.83 248.19 104.32 248.00 104.00
C 170.45 65.85 66.00 127.71 66.00 216.00
M 250.00 160.00 
C 264.66 167.29 256.12 193.88 239.00 188.00 C 221.88 182.12 230.88 156.89 248.00 159.00
C 249.53 159.19 248.97 159.49 250.00 160.00 Z"/>
</g>
<g fill="None" fill-opacity="0.0" stroke="#003946" stroke-opacity="1.00" stroke-width="0.3"><path d="
M 106.00 104.00 
C 111.28 100.80 116.26 96.67 121.00 93.00
C 115.58 96.36 110.98 100.19 106.00 104.00 Z"/>
</g>
<g fill="None" fill-opacity="0.0" stroke="#00313D" stroke-opacity="1.00" stroke-width="0.3"><path d="
M 297.00 123.00 
C 292.39 115.56 286.85 108.86 280.00 103.00
C 286.13 109.13 291.87 116.37 297.00 123.00 Z"/>
</g>
<g fill="None" fill-opacity="0.0" stroke="#044A58" stroke-opacity="1.00" stroke-width="0.3"><path d="
M 249.00 105.00 
C 268.68 114.81 282.48 129.91 289.22 151.78 C 295.97 173.64 323.46 179.49 342.00 186.00
C 335.66 181.69 319.69 179.71 311.08 173.92 C 302.47 168.14 292.73 160.83 290.32 150.68 C 287.91 140.52 280.15 128.78 273.75 122.25 C 267.35 115.72 256.33 103.47 249.00 105.00 Z"/>
</g>
<g fill="None" fill-opacity="0.0" stroke="#154D63" stroke-opacity="1.00" stroke-width="0.3"><path d="
M 377.00 112.00 
C 390.34 108.52 403.65 108.00 418.00 108.00
C 422.23 108.00 425.95 108.32 430.00 109.00
C 453.02 112.89 473.08 122.69 491.00 138.00
C 494.60 141.07 497.97 144.45 501.00 148.00
C 514.30 163.56 523.10 181.51 528.00 201.00
C 527.32 192.85 524.12 182.19 519.77 174.23 C 515.43 166.27 511.54 158.98 505.75 152.25 C 499.96 145.51 495.63 138.83 488.23 133.77 C 480.83 128.71 474.13 122.63 466.07 118.93 C 458.02 115.22 447.98 111.20 439.22 109.78 C 430.47 108.35 415.55 104.25 407.02 106.02 C 398.50 107.80 382.10 104.79 377.00 112.00 Z"/>
</g>
<g fill="None" fill-opacity="0.0" stroke="#EDD9A1" stroke-opacity="1.00" stroke-width="0.3"><path d="
M 377.00 112.00 
C 376.79 112.30 376.35 112.87 376.00 113.00
C 352.65 121.81 330.48 137.14 320.00 161.00
C 341.58 179.09 388.06 155.13 394.00 191.00
C 394.65 195.67 393.65 201.02 393.00 205.00
C 389.04 229.40 377.55 251.53 359.00 269.00
C 366.37 267.58 374.27 268.05 382.00 268.00
C 393.58 249.41 408.55 228.16 430.00 220.00
C 425.13 216.45 416.96 225.84 412.25 229.25 C 407.54 232.65 401.65 238.13 397.75 243.75 C 393.85 249.38 388.31 252.87 385.23 260.23 C 382.15 267.59 371.18 268.37 363.00 267.00
C 374.68 255.02 384.90 239.07 389.93 223.93 C 394.95 208.78 402.01 179.32 382.92 171.08 C 363.83 162.84 340.15 172.58 322.00 161.00
C 338.00 124.00 380.35 107.76 418.00 108.00
C 403.65 108.00 390.34 108.52 377.00 112.00 Z"/>
</g>
<g fill="None" fill-opacity="0.0" stroke="#F7C799" stroke-opacity="1.00" stroke-width="0.3"><path d="
M 430.00 220.00 
C 430.47 219.89 431.00 220.00 431.00 220.00
C 433.29 213.73 443.94 224.51 444.92 230.08 C 445.91 235.64 452.12 242.68 453.92 249.08 C 455.72 255.47 459.02 263.74 459.99 271.01 C 460.96 278.28 464.40 288.00 463.00 296.00 C 461.60 304.00 464.21 312.66 468.77 318.23 C 473.33 323.80 476.19 331.07 477.93 337.07 C 479.67 343.08 485.96 353.91 482.00 359.00
C 482.01 359.50 482.00 360.00 482.00 360.00
C 487.51 361.47 482.68 377.23 486.00 381.00
C 492.85 369.48 499.07 360.17 504.92 347.92 C 510.78 335.68 516.48 324.24 520.93 310.93 C 525.37 297.61 528.68 283.33 530.78 268.78 C 532.88 254.23 532.10 233.23 530.02 218.98 C 527.94 204.72 524.60 190.73 518.70 178.31 C 512.79 165.88 506.75 156.28 497.75 146.25 C 488.75 136.22 479.60 130.66 468.30 123.70 C 457.01 116.73 440.91 113.80 430.00 109.00
C 425.95 108.32 422.23 108.00 418.00 108.00
C 380.35 107.76 338.00 124.00 322.00 161.00
C 340.15 172.58 363.83 162.84 382.92 171.08 C 402.01 179.32 394.95 208.78 389.93 223.93 C 384.90 239.07 374.68 255.02 363.00 267.00
C 371.18 268.37 382.15 267.59 385.23 260.23 C 388.31 252.87 393.85 249.38 397.75 243.75 C 401.65 238.13 407.54 232.65 412.25 229.25 C 416.96 225.84 425.13 216.45 430.00 220.00 Z"/>
</g>
<g fill="None" fill-opacity="0.0" stroke="#EBD79F" stroke-opacity="1.00" stroke-width="0.3"><path d="
M 482.00 360.00 
C 483.38 368.39 481.77 377.43 483.00 386.00
C 483.22 386.30 483.71 387.06 484.00 387.00
C 490.47 378.72 493.84 367.86 500.31 359.30 C 506.77 350.75 509.01 338.70 515.00 330.00
C 515.21 329.70 515.74 329.25 516.00 329.00
C 523.09 302.71 533.00 279.62 533.00 251.00
C 533.00 246.33 533.00 241.67 533.00 237.00
C 533.00 230.58 533.05 224.22 532.00 218.00
C 531.13 212.87 529.36 206.42 528.00 201.00
C 523.10 181.51 514.30 163.56 501.00 148.00
C 497.75 144.75 494.21 141.21 491.00 138.00
C 473.08 122.69 453.02 112.89 430.00 109.00
C 440.91 113.80 457.01 116.73 468.30 123.70 C 479.60 130.66 488.75 136.22 497.75 146.25 C 506.75 156.28 512.79 165.88 518.70 178.31 C 524.60 190.73 527.94 204.72 530.02 218.98 C 532.10 233.23 532.88 254.23 530.78 268.78 C 528.68 283.33 525.37 297.61 520.93 310.93 C 516.48 324.24 510.78 335.68 504.92 347.92 C 499.07 360.17 492.85 369.48 486.00 381.00
C 482.68 377.23 487.51 361.47 482.00 360.00 Z"/>
</g>
<g fill="None" fill-opacity="0.0" stroke="#003440" stroke-opacity="1.00" stroke-width="0.3"><path d="
M 82.00 126.00 
C 87.20 120.80 92.75 115.25 98.00 110.00
C 92.38 114.80 86.84 120.33 82.00 126.00 Z"/>
</g>
<g fill="None" fill-opacity="0.0" stroke="#144D64" stroke-opacity="1.00" stroke-width="0.3"><path d="
M 394.00 191.00 
C 388.06 155.13 341.58 179.09 320.00 161.00
C 330.48 137.14 352.65 121.81 376.00 113.00
C 352.17 117.45 326.85 138.84 319.00 163.00
C 325.60 165.75 332.98 167.51 339.93 169.07 C 346.87 170.63 357.13 170.98 364.00 171.00 C 370.87 171.02 380.71 171.80 385.25 175.75 C 389.79 179.71 393.40 188.97 394.00 191.00 Z"/>
</g>
<g fill="None" fill-opacity="0.0" stroke="#003C49" stroke-opacity="1.00" stroke-width="0.3"><path d="
M 517.00 137.00 
C 510.25 129.10 502.34 121.08 494.00 115.00
C 501.54 121.97 509.55 129.55 517.00 137.00 Z"/>
</g>
<g fill="None" fill-opacity="0.0" stroke="#003844" stroke-opacity="1.00" stroke-width="0.3"><path d="
M 311.00 139.00 
C 314.63 135.89 317.34 132.03 320.00 128.00
C 317.04 131.53 314.04 135.45 311.00 139.00 Z"/>
</g>
<g fill="None" fill-opacity="0.0" stroke="#003643" stroke-opacity="1.00" stroke-width="0.3"><path d="
M 305.00 138.00 
C 303.42 134.90 301.70 131.86 300.00 129.00
C 301.49 132.15 303.14 135.26 305.00 138.00 Z"/>
</g>
<g fill="None" fill-opacity="0.0" stroke="#A2A389" stroke-opacity="1.00" stroke-width="0.3"><path d="
M 501.00 148.00 
C 497.97 144.45 494.60 141.07 491.00 138.00
C 494.21 141.21 497.75 144.75 501.00 148.00 Z"/>
</g>
<g fill="None" fill-opacity="0.0" stroke="#003B49" stroke-opacity="1.00" stroke-width="0.3"><path d="
M 65.00 151.00 
C 66.96 148.14 69.23 145.29 71.00 142.00
C 69.02 144.92 66.83 147.69 65.00 151.00 Z"/>
</g>
<g fill="None" fill-opacity="0.0" stroke="#044C59" stroke-opacity="1.00" stroke-width="0.3"><path d="
M 140.00 175.00 
C 139.56 169.71 133.02 147.31 143.99 147.01 C 154.97 146.70 155.65 161.33 158.02 169.98 C 160.40 178.62 163.51 191.26 165.00 201.00 C 166.49 210.74 167.50 225.20 168.00 235.00
C 168.97 223.66 167.40 208.52 165.93 198.07 C 164.46 187.63 160.41 176.49 158.93 167.07 C 157.45 157.66 152.52 142.74 141.23 146.23 C 129.94 149.72 138.50 168.23 140.00 175.00 Z"/>
</g>
<g fill="None" fill-opacity="0.0" stroke="#054A58" stroke-opacity="1.00" stroke-width="0.3"><path d="
M 250.00 160.00 
C 253.91 165.31 260.53 174.45 253.23 182.23 C 245.93 190.01 233.85 188.43 231.22 177.78 C 228.60 167.12 239.03 159.89 248.00 159.00
C 230.88 156.89 221.88 182.12 239.00 188.00 C 256.12 193.88 264.66 167.29 250.00 160.00 Z"/>
</g>
<g fill="None" fill-opacity="0.0" stroke="#07626C" stroke-opacity="1.00" stroke-width="0.3"><path d="
M 250.00 160.00 
C 248.97 159.49 249.53 159.19 248.00 159.00
C 239.03 159.89 228.60 167.12 231.22 177.78 C 233.85 188.43 245.93 190.01 253.23 182.23 C 260.53 174.45 253.91 165.31 250.00 160.00 Z"/>
</g>
<g fill="None" fill-opacity="0.0" stroke="#124D63" stroke-opacity="1.00" stroke-width="0.3"><path d="
M 483.00 386.00 
C 481.77 377.43 483.38 368.39 482.00 360.00
C 482.00 360.00 482.01 359.50 482.00 359.00
C 481.77 348.97 476.50 339.56 473.70 330.31 C 470.89 321.05 461.74 314.67 461.00 305.00
C 460.60 299.74 461.00 294.28 461.00 289.00
C 461.00 277.20 457.41 258.58 452.08 248.92 C 446.74 239.27 444.41 219.10 431.00 220.00
C 431.00 220.00 430.47 219.89 430.00 220.00
C 408.55 228.16 393.58 249.41 382.00 268.00
C 374.27 268.05 366.37 267.58 359.00 269.00
C 377.55 251.53 389.04 229.40 393.00 205.00
C 391.49 204.07 390.69 212.55 388.93 217.93 C 387.16 223.31 386.32 227.14 383.31 233.31 C 380.29 239.47 380.12 238.81 375.77 246.77 C 371.42 254.73 361.89 262.31 357.00 270.00
C 364.19 269.16 378.14 272.71 383.75 266.75 C 389.36 260.79 391.44 254.34 396.75 248.75 C 402.06 243.16 405.55 237.47 411.75 232.75 C 417.96 228.03 422.64 222.04 431.00 221.00 C 439.36 219.97 442.28 231.02 445.69 237.31 C 449.11 243.59 451.53 252.10 454.68 259.32 C 457.83 266.54 457.79 277.36 459.67 285.33 C 461.55 293.30 456.78 307.11 462.25 313.75 C 467.72 320.39 469.84 325.96 473.68 333.32 C 477.51 340.69 477.03 350.43 480.07 357.93 C 483.11 365.43 478.54 379.95 483.00 386.00 Z"/>
</g>
<g fill="None" fill-opacity="0.0" stroke="#268087" stroke-opacity="1.00" stroke-width="0.3"><path d="
M 66.00 231.00 
C 65.90 226.00 66.00 221.00 66.00 216.00
C 65.55 220.69 65.42 226.22 66.00 231.00 Z"/>
</g>
<g fill="None" fill-opacity="0.0" stroke="#144F64" stroke-opacity="1.00" stroke-width="0.3"><path d="
M 532.00 218.00 
C 533.05 224.22 533.00 230.58 533.00 237.00
C 533.43 241.40 533.42 246.66 533.00 251.00
C 533.00 279.62 523.09 302.71 516.00 329.00
C 523.76 321.56 524.38 304.55 528.22 295.22 C 532.06 285.89 530.68 284.14 532.07 276.07 C 533.46 268.00 534.37 263.30 535.00 256.00 C 535.63 248.70 534.75 239.75 534.78 233.22 C 534.81 226.69 532.08 218.18 532.00 218.00 Z"/>
</g>
<g fill="None" fill-opacity="0.0" stroke="#003946" stroke-opacity="1.00" stroke-width="0.3"><path d="
M 45.00 226.00 
C 45.23 223.64 46.00 220.10 46.00 217.00
C 45.77 219.36 45.00 222.90 45.00 226.00 Z"/>
</g>
<g fill="None" fill-opacity="0.0" stroke="#ECD79F" stroke-opacity="1.00" stroke-width="0.3"><path d="
M 431.00 220.00 
C 444.41 219.10 446.74 239.27 452.08 248.92 C 457.41 258.58 461.00 277.20 461.00 289.00
C 461.47 293.85 461.10 300.32 461.00 305.00
C 461.74 314.67 470.89 321.05 473.70 330.31 C 476.50 339.56 481.77 348.97 482.00 359.00
C 485.96 353.91 479.67 343.08 477.93 337.07 C 476.19 331.07 473.33 323.80 468.77 318.23 C 464.21 312.66 461.60 304.00 463.00 296.00 C 464.40 288.00 460.96 278.28 459.99 271.01 C 459.02 263.74 455.72 255.47 453.92 249.08 C 452.12 242.68 445.91 235.64 444.92 230.08 C 443.94 224.51 433.29 213.73 431.00 220.00 Z"/>
</g>
<g fill="None" fill-opacity="0.0" stroke="#044B59" stroke-opacity="1.00" stroke-width="0.3"><path d="
M 118.00 292.00 
C 131.91 289.74 141.86 284.43 151.75 273.75 C 161.65 263.07 163.99 251.48 167.00 238.00
C 166.76 238.25 165.01 243.91 163.78 249.78 C 162.54 255.64 161.38 255.34 158.30 262.31 C 155.23 269.27 147.63 277.95 141.08 282.08 C 134.54 286.21 134.24 286.95 128.67 288.67 C 123.10 290.39 117.54 292.16 118.00 292.00 Z"/>
</g>
<g fill="None" fill-opacity="0.0" stroke="#808C83" stroke-opacity="1.00" stroke-width="0.3"><path d="
M 533.00 251.00 
C 533.42 246.66 533.43 241.40 533.00 237.00
C 533.00 241.67 533.00 246.33 533.00 251.00 Z"/>
</g>
<g fill="None" fill-opacity="0.0" stroke="#003142" stroke-opacity="1.00" stroke-width="0.3"><path d="
M 552.00 250.00 
C 552.36 246.29 552.37 241.77 552.00 238.00
C 552.00 242.00 552.00 246.00 552.00 250.00 Z"/>
</g>
<g fill="None" fill-opacity="0.0" stroke="#144D63" stroke-opacity="1.00" stroke-width="0.3"><path d="
M 271.00 398.00 
C 284.14 405.52 304.20 378.05 282.00 380.00
C 280.18 380.16 275.62 380.76 274.00 380.00
C 271.36 378.77 272.15 377.13 273.00 375.00
C 274.65 370.87 280.27 368.13 283.00 365.00
C 293.01 351.53 293.28 334.23 304.75 320.75 C 316.23 307.28 328.25 300.27 344.07 293.07 C 359.90 285.88 386.18 293.88 396.30 280.30 C 406.43 266.73 413.25 253.75 427.00 244.00
C 434.23 261.25 445.14 279.66 442.00 300.00 C 438.86 320.34 455.76 332.99 460.00 352.00
C 460.15 352.43 460.78 353.25 461.00 354.00
C 473.67 396.18 447.54 437.44 414.25 461.25 C 380.96 485.06 354.90 510.70 317.00 525.00
C 328.52 524.10 340.12 513.99 350.92 507.92 C 361.73 501.86 372.07 494.47 382.30 487.30 C 392.54 480.14 402.32 473.34 411.75 464.75 C 421.19 456.17 430.72 449.35 439.75 439.75 C 448.78 430.15 455.07 420.59 460.02 408.02 C 464.98 395.46 466.72 375.99 463.99 362.01 C 461.26 348.02 458.04 335.53 448.75 324.25 C 439.46 312.97 444.40 293.77 441.00 280.00 C 437.60 266.23 436.05 253.41 427.00 242.00
C 420.19 246.27 415.60 251.25 411.25 258.25 C 406.89 265.25 400.79 267.83 397.31 276.31 C 393.82 284.78 386.23 288.48 377.00 286.00 C 367.77 283.52 357.87 288.30 349.68 289.68 C 341.49 291.06 334.31 295.59 327.23 299.23 C 320.15 302.87 315.04 307.60 309.25 313.25 C 303.46 318.89 300.21 324.00 296.31 331.31 C 292.40 338.61 289.53 345.28 286.78 353.78 C 284.02 362.27 281.15 365.14 273.75 372.75 C 266.36 380.36 282.77 383.56 291.00 381.00
C 292.51 387.47 288.07 390.18 284.75 394.75 C 281.44 399.32 274.00 396.03 271.00 398.00 Z"/>
</g>
<g fill="None" fill-opacity="0.0" stroke="#ECD79F" stroke-opacity="1.00" stroke-width="0.3"><path d="
M 283.00 365.00 
C 280.58 368.26 274.64 371.69 273.00 375.00
C 272.15 377.13 271.36 378.77 274.00 380.00
C 276.19 378.00 272.29 378.28 273.00 376.00
C 284.37 369.35 287.91 357.76 291.98 346.98 C 296.04 336.19 300.69 326.97 308.75 317.75 C 316.82 308.54 325.18 302.15 336.70 297.69 C 348.21 293.24 361.20 286.65 375.00 290.00 C 388.80 293.35 398.71 282.32 404.25 271.25 C 409.80 260.19 418.30 253.56 427.00 246.00
C 432.76 257.02 436.06 268.92 438.93 281.07 C 441.79 293.23 436.44 312.86 444.25 322.75 C 452.06 332.64 455.53 343.50 460.00 352.00
C 455.76 332.99 438.86 320.34 442.00 300.00 C 445.14 279.66 434.23 261.25 427.00 244.00
C 413.25 253.75 406.43 266.73 396.30 280.30 C 386.18 293.88 359.90 285.88 344.07 293.07 C 328.25 300.27 316.23 307.28 304.75 320.75 C 293.28 334.23 293.01 351.53 283.00 365.00 Z"/>
</g>
<g fill="None" fill-opacity="0.0" stroke="#00404F" stroke-opacity="1.00" stroke-width="0.3"><path d="
M 46.00 257.00 
C 46.00 252.92 45.33 248.40 45.00 245.00
C 45.00 249.08 45.67 253.60 46.00 257.00 Z"/>
</g>
<g fill="None" fill-opacity="0.0" stroke="#F7C799" stroke-opacity="1.00" stroke-width="0.3"><path d="
M 274.00 380.00 
C 275.62 380.76 280.18 380.16 282.00 380.00
C 281.69 379.94 280.11 378.54 280.00 378.00
C 291.33 374.49 296.24 382.19 291.25 390.25 C 286.25 398.30 282.88 399.85 274.00 402.00
C 284.33 422.82 300.88 431.01 324.67 433.33 C 348.46 435.65 354.14 466.40 341.23 483.23 C 328.32 500.06 316.22 512.72 300.00 525.00
C 328.68 525.14 351.60 504.11 375.23 489.23 C 398.86 474.35 415.92 458.29 437.25 438.25 C 458.58 418.21 466.61 381.80 461.00 354.00
C 460.78 353.25 460.15 352.43 460.00 352.00
C 455.53 343.50 452.06 332.64 444.25 322.75 C 436.44 312.86 441.79 293.23 438.93 281.07 C 436.06 268.92 432.76 257.02 427.00 246.00
C 418.30 253.56 409.80 260.19 404.25 271.25 C 398.71 282.32 388.80 293.35 375.00 290.00 C 361.20 286.65 348.21 293.24 336.70 297.69 C 325.18 302.15 316.82 308.54 308.75 317.75 C 300.69 326.97 296.04 336.19 291.98 346.98 C 287.91 357.76 284.37 369.35 273.00 376.00
C 272.29 378.28 276.19 378.00 274.00 380.00
M 332.00 343.00 
C 332.44 342.84 333.00 343.00 333.00 343.00
C 335.69 337.08 352.28 342.64 351.92 351.08 C 351.57 359.51 348.75 366.89 339.97 370.97 C 331.19 375.06 322.63 367.14 320.67 360.33 C 318.71 353.51 327.68 339.95 332.00 343.00
M 353.00 386.00 
C 362.62 386.93 368.24 387.73 378.22 390.78 C 388.20 393.82 380.67 405.12 370.98 399.02 C 361.28 392.93 354.93 400.73 344.00 396.00 C 333.07 391.27 341.77 384.91 353.00 386.00
M 340.00 400.00 
C 347.29 400.93 350.15 408.44 358.08 409.92 C 366.01 411.40 367.86 423.11 358.78 421.22 C 349.69 419.33 349.06 412.34 340.32 411.68 C 331.58 411.02 330.30 398.76 340.00 400.00 Z"/>
</g>
<g fill="None" fill-opacity="0.0" stroke="#054E5B" stroke-opacity="1.00" stroke-width="0.3"><path d="
M 188.00 318.00 
C 190.25 309.59 192.77 295.14 198.08 285.08 C 203.38 275.01 207.61 267.35 218.31 261.31 C 229.00 255.26 242.77 259.05 253.32 263.68 C 263.88 268.31 277.10 271.99 288.00 271.00
C 265.56 268.75 239.58 250.00 218.08 260.08 C 196.59 270.16 190.50 297.32 188.00 318.00 Z"/>
</g>
<g fill="None" fill-opacity="0.0" stroke="#003B4A" stroke-opacity="1.00" stroke-width="0.3"><path d="
M 551.00 267.00 
C 551.23 264.64 552.00 261.10 552.00 258.00
C 551.77 260.36 551.00 263.90 551.00 267.00 Z"/>
</g>
<g fill="None" fill-opacity="0.0" stroke="#E9D8A1" stroke-opacity="1.00" stroke-width="0.3"><path d="
M 313.00 269.00 
C 310.05 273.96 315.83 281.82 314.00 287.00
C 318.89 286.31 322.75 283.29 327.00 281.00
C 326.64 277.81 315.10 266.90 313.00 269.00
M 326.00 280.00 
C 323.00 282.45 319.50 283.62 316.00 285.00
C 314.37 280.69 315.19 275.68 315.00 271.00
C 319.04 273.33 323.34 275.99 326.00 280.00 Z"/>
</g>
<g fill="None" fill-opacity="0.0" stroke="#054761" stroke-opacity="1.00" stroke-width="0.3"><path d="
M 314.00 287.00 
C 315.83 281.82 310.05 273.96 313.00 269.00
C 311.01 270.99 310.93 285.57 314.00 287.00 Z"/>
</g>
<g fill="None" fill-opacity="0.0" stroke="#F7C798" stroke-opacity="1.00" stroke-width="0.3"><path d="
M 326.00 280.00 
C 323.34 275.99 319.04 273.33 315.00 271.00
C 315.19 275.68 314.37 280.69 316.00 285.00
C 319.50 283.62 323.00 282.45 326.00 280.00 Z"/>
</g>
<g fill="None" fill-opacity="0.0" stroke="#F7F3EC" stroke-opacity="1.00" stroke-width="0.3"><path d="
M 296.00 290.00 
C 275.15 290.47 258.48 280.89 239.07 275.93 C 219.67 270.96 210.43 295.81 206.99 311.99 C 203.55 328.18 204.50 357.22 212.23 372.77 C 219.96 388.32 228.46 401.89 240.75 414.25 C 253.04 426.61 265.39 435.91 279.25 445.75 C 293.12 455.59 308.88 464.68 325.00 470.00
C 337.96 460.65 321.31 451.39 310.00 451.00 C 298.69 450.60 286.63 443.95 277.25 437.75 C 267.86 431.55 262.12 423.46 256.31 413.69 C 250.49 403.93 247.67 387.75 250.22 376.22 C 252.78 364.70 265.82 361.02 270.02 351.02 C 274.23 341.02 278.09 328.40 284.08 319.08 C 290.07 309.77 300.87 301.24 296.00 290.00 Z"/>
</g>
<g fill="None" fill-opacity="0.0" stroke="#5D807B" stroke-opacity="1.00" stroke-width="0.3"><path d="
M 461.00 305.00 
C 461.10 300.32 461.47 293.85 461.00 289.00
C 461.00 294.28 460.60 299.74 461.00 305.00 Z"/>
</g>
<g fill="None" fill-opacity="0.0" stroke="#124C62" stroke-opacity="1.00" stroke-width="0.3"><path d="
M 484.00 387.00 
C 489.46 385.94 492.56 373.39 496.23 369.23 C 499.90 365.07 504.65 355.38 507.22 350.22 C 509.80 345.07 516.28 334.91 515.00 330.00
C 509.01 338.70 506.77 350.75 500.31 359.30 C 493.84 367.86 490.47 378.72 484.00 387.00 Z"/>
</g>
<g fill="None" fill-opacity="0.0" stroke="#EED8A0" stroke-opacity="1.00" stroke-width="0.3"><path d="
M 333.00 343.00 
C 340.08 340.49 350.66 344.61 350.93 353.07 C 351.20 361.54 344.70 367.42 338.00 370.00
C 337.28 370.28 337.16 370.85 336.00 371.00
C 319.02 373.16 318.29 347.95 332.00 343.00
C 327.68 339.95 318.71 353.51 320.67 360.33 C 322.63 367.14 331.19 375.06 339.97 370.97 C 348.75 366.89 351.57 359.51 351.92 351.08 C 352.28 342.64 335.69 337.08 333.00 343.00 Z"/>
</g>
<g fill="None" fill-opacity="0.0" stroke="#154D63" stroke-opacity="1.00" stroke-width="0.3"><path d="
M 333.00 343.00 
C 333.00 343.00 332.44 342.84 332.00 343.00
C 318.29 347.95 319.02 373.16 336.00 371.00
C 326.11 369.49 320.84 359.34 325.77 350.77 C 330.70 342.21 341.99 340.45 347.92 349.08 C 353.85 357.71 341.13 366.66 338.00 370.00
C 344.70 367.42 351.20 361.54 350.93 353.07 C 350.66 344.61 340.08 340.49 333.00 343.00 Z"/>
</g>
<g fill="None" fill-opacity="0.0" stroke="#08616C" stroke-opacity="1.00" stroke-width="0.3"><path d="
M 336.00 371.00 
C 337.16 370.85 337.28 370.28 338.00 370.00
C 341.13 366.66 353.85 357.71 347.92 349.08 C 341.99 340.45 330.70 342.21 325.77 350.77 C 320.84 359.34 326.11 369.49 336.00 371.00 Z"/>
</g>
<g fill="None" fill-opacity="0.0" stroke="#003643" stroke-opacity="1.00" stroke-width="0.3"><path d="
M 76.00 356.00 
C 74.33 352.14 72.01 348.46 70.00 345.00
C 71.71 348.96 74.06 352.44 76.00 356.00 Z"/>
</g>
<g fill="None" fill-opacity="0.0" stroke="#ECD8A0" stroke-opacity="1.00" stroke-width="0.3"><path d="
M 282.00 380.00 
C 304.20 378.05 284.14 405.52 271.00 398.00
C 271.00 398.00 270.05 398.15 270.00 398.00
C 274.69 412.03 283.86 419.65 296.70 427.31 C 309.53 434.96 325.46 431.42 338.75 441.25 C 352.03 451.09 346.48 470.49 340.00 483.00
C 339.83 483.33 339.32 483.80 339.00 484.00
C 336.35 488.17 333.17 493.19 329.75 496.75 C 326.32 500.31 322.19 504.57 318.75 507.75 C 315.32 510.94 309.46 514.71 306.30 517.30 C 303.15 519.89 294.22 525.02 297.00 526.00
C 298.24 525.84 298.36 526.83 299.00 527.00
C 303.73 528.22 311.49 527.18 316.00 526.00
C 316.25 525.75 316.65 525.13 317.00 525.00
C 354.90 510.70 380.96 485.06 414.25 461.25 C 447.54 437.44 473.67 396.18 461.00 354.00
C 466.61 381.80 458.58 418.21 437.25 438.25 C 415.92 458.29 398.86 474.35 375.23 489.23 C 351.60 504.11 328.68 525.14 300.00 525.00
C 316.22 512.72 328.32 500.06 341.23 483.23 C 354.14 466.40 348.46 435.65 324.67 433.33 C 300.88 431.01 284.33 422.82 274.00 402.00
C 282.88 399.85 286.25 398.30 291.25 390.25 C 296.24 382.19 291.33 374.49 280.00 378.00
C 280.11 378.54 281.69 379.94 282.00 380.00 Z"/>
</g>
<g fill="None" fill-opacity="0.0" stroke="#064D5B" stroke-opacity="1.00" stroke-width="0.3"><path d="
M 189.00 359.00 
C 195.44 390.12 213.22 415.10 236.75 437.25 C 260.28 459.40 286.01 470.50 313.00 486.00
C 314.18 484.26 299.63 478.64 295.75 476.25 C 291.86 473.87 282.94 469.04 278.08 465.92 C 273.22 462.81 266.09 458.90 261.08 454.92 C 256.07 450.94 249.72 446.66 244.75 442.25 C 239.79 437.83 235.04 433.61 230.25 428.75 C 225.46 423.90 220.99 419.53 216.75 414.25 C 212.52 408.97 208.01 403.17 204.77 397.23 C 201.53 391.29 198.03 384.48 195.78 378.22 C 193.52 371.97 190.51 362.88 189.00 359.00 Z"/>
</g>
<g fill="None" fill-opacity="0.0" stroke="#054C5A" stroke-opacity="1.00" stroke-width="0.3"><path d="
M 313.00 487.00 
C 307.02 499.21 294.93 500.19 285.70 509.70 C 276.47 519.21 263.65 507.92 254.08 501.92 C 244.51 495.91 233.71 489.45 224.23 482.77 C 214.75 476.09 204.40 469.00 195.25 461.75 C 186.09 454.50 176.36 447.14 167.75 439.25 C 159.14 431.35 150.65 424.01 142.75 415.25 C 134.86 406.49 126.84 397.54 119.92 388.08 C 113.00 378.62 106.19 369.00 100.00 359.00
C 101.96 364.27 106.25 371.56 110.70 377.30 C 115.14 383.05 119.37 389.43 123.75 395.25 C 128.14 401.07 133.34 406.26 138.25 411.75 C 143.15 417.25 147.88 422.50 153.25 427.75 C 158.62 433.01 164.30 437.20 169.75 442.25 C 175.20 447.30 180.91 451.85 186.75 456.25 C 192.59 460.64 197.90 465.90 203.92 470.08 C 209.93 474.26 216.16 478.71 222.25 482.75 C 228.35 486.78 234.63 491.53 240.77 495.23 C 246.91 498.93 253.99 503.60 259.92 507.08 C 265.85 510.56 274.45 517.50 280.30 514.30 C 286.16 511.10 294.92 505.34 298.92 501.92 C 302.91 498.50 315.31 490.71 313.00 487.00 Z"/>
</g>
<g fill="None" fill-opacity="0.0" stroke="#8A9683" stroke-opacity="1.00" stroke-width="0.3"><path d="
M 273.00 375.00 
C 274.64 371.69 280.58 368.26 283.00 365.00
C 280.27 368.13 274.65 370.87 273.00 375.00 Z"/>
</g>
<g fill="None" fill-opacity="0.0" stroke="#003945" stroke-opacity="1.00" stroke-width="0.3"><path d="
M 98.00 391.00 
C 95.94 387.60 93.43 384.99 91.00 382.00
C 93.13 385.30 95.69 387.99 98.00 391.00 Z"/>
</g>
<g fill="None" fill-opacity="0.0" stroke="#E6D09D" stroke-opacity="1.00" stroke-width="0.3"><path d="
M 353.00 386.00 
C 341.77 384.91 333.07 391.27 344.00 396.00 C 354.93 400.73 361.28 392.93 370.98 399.02 C 380.67 405.12 388.20 393.82 378.22 390.78 C 368.24 387.73 362.62 386.93 353.00 386.00
M 363.00 389.00 
C 363.50 388.97 364.53 388.89 365.00 389.00
C 369.87 390.14 377.64 388.53 381.23 393.77 C 384.82 399.01 374.66 399.88 369.93 397.07 C 365.20 394.27 355.53 395.47 350.00 395.00
C 348.67 394.89 347.77 394.16 347.00 394.00
C 346.25 393.84 334.33 394.27 339.78 389.78 C 345.24 385.28 355.86 389.45 363.00 389.00 Z"/>
</g>
<g fill="None" fill-opacity="0.0" stroke="#0E4961" stroke-opacity="1.00" stroke-width="0.3"><path d="
M 347.00 394.00 
C 346.70 393.81 339.21 393.44 341.00 389.00
C 348.43 387.59 356.41 391.88 363.00 389.00
C 355.86 389.45 345.24 385.28 339.78 389.78 C 334.33 394.27 346.25 393.84 347.00 394.00 Z"/>
</g>
<g fill="None" fill-opacity="0.0" stroke="#0A616B" stroke-opacity="1.00" stroke-width="0.3"><path d="
M 347.00 394.00 
C 347.77 394.16 348.67 394.89 350.00 395.00
C 353.25 394.83 364.59 393.19 367.67 395.33 C 370.76 397.47 383.44 398.14 380.21 394.77 C 376.99 391.40 368.23 391.98 365.00 389.00
C 364.53 388.89 363.50 388.97 363.00 389.00
C 356.41 391.88 348.43 387.59 341.00 389.00
C 339.21 393.44 346.70 393.81 347.00 394.00 Z"/>
</g>
<g fill="None" fill-opacity="0.0" stroke="#124C64" stroke-opacity="1.00" stroke-width="0.3"><path d="
M 350.00 395.00 
C 355.53 395.47 365.20 394.27 369.93 397.07 C 374.66 399.88 384.82 399.01 381.23 393.77 C 377.64 388.53 369.87 390.14 365.00 389.00
C 368.23 391.98 376.99 391.40 380.21 394.77 C 383.44 398.14 370.76 397.47 367.67 395.33 C 364.59 393.19 353.25 394.83 350.00 395.00 Z"/>
</g>
<g fill="None" fill-opacity="0.0" stroke="#134B62" stroke-opacity="1.00" stroke-width="0.3"><path d="
M 340.00 483.00 
C 346.48 470.49 352.03 451.09 338.75 441.25 C 325.46 431.42 309.53 434.96 296.70 427.31 C 283.86 419.65 274.69 412.03 270.00 398.00
C 266.41 401.49 275.86 411.70 279.25 415.75 C 282.63 419.80 288.98 424.98 294.92 428.08 C 300.87 431.17 309.46 434.57 316.98 435.02 C 324.50 435.48 331.03 437.88 337.75 442.25 C 344.48 446.62 346.01 455.68 345.99 462.99 C 345.97 470.30 338.84 477.42 340.00 483.00 Z"/>
</g>
<g fill="None" fill-opacity="0.0" stroke="#EFD8A0" stroke-opacity="1.00" stroke-width="0.3"><path d="
M 340.00 400.00 
C 330.30 398.76 331.58 411.02 340.32 411.68 C 349.06 412.34 349.69 419.33 358.78 421.22 C 367.86 423.11 366.01 411.40 358.08 409.92 C 350.15 408.44 347.29 400.93 340.00 400.00
M 340.00 402.00 
C 346.23 402.61 349.87 409.60 356.25 410.75 C 362.62 411.90 367.31 420.64 359.77 420.21 C 352.23 419.78 350.27 411.81 343.32 411.68 C 336.37 411.55 329.82 401.01 340.00 402.00 Z"/>
</g>
<g fill="None" fill-opacity="0.0" stroke="#1A4E64" stroke-opacity="1.00" stroke-width="0.3"><path d="
M 340.00 402.00 
C 329.82 401.01 336.37 411.55 343.32 411.68 C 350.27 411.81 352.23 419.78 359.77 420.21 C 367.31 420.64 362.62 411.90 356.25 410.75 C 349.87 409.60 346.23 402.61 340.00 402.00
M 336.00 407.00 
C 339.29 399.21 345.68 407.67 353.08 409.92 C 360.47 412.18 365.24 421.62 355.75 416.25 C 346.27 410.88 345.15 410.80 336.00 407.00 Z"/>
</g>
<g fill="None" fill-opacity="0.0" stroke="#09616B" stroke-opacity="1.00" stroke-width="0.3"><path d="
M 336.00 407.00 
C 345.15 410.80 346.27 410.88 355.75 416.25 C 365.24 421.62 360.47 412.18 353.08 409.92 C 345.68 407.67 339.29 399.21 336.00 407.00 Z"/>
</g>
<g fill="None" fill-opacity="0.0" stroke="#013747" stroke-opacity="1.00" stroke-width="0.3"><path d="
M 487.00 413.00 
C 489.22 410.30 491.92 408.04 494.00 405.00
C 491.61 407.75 488.98 409.74 487.00 413.00 Z"/>
</g>
<g fill="None" fill-opacity="0.0" stroke="#003440" stroke-opacity="1.00" stroke-width="0.3"><path d="
M 164.00 462.00 
C 157.72 453.00 147.06 447.55 139.75 439.25 C 132.45 430.95 124.71 423.71 117.00 416.00
C 123.82 423.98 131.56 433.46 139.75 440.25 C 147.95 447.03 154.57 457.39 164.00 462.00 Z"/>
</g>
<g fill="None" fill-opacity="0.0" stroke="#003745" stroke-opacity="1.00" stroke-width="0.3"><path d="
M 438.00 466.00 
C 454.40 451.99 469.22 435.13 483.00 419.00
C 468.01 433.99 453.34 450.66 438.00 466.00 Z"/>
</g>
<g fill="None" fill-opacity="0.0" stroke="#013847" stroke-opacity="1.00" stroke-width="0.3"><path d="
M 175.00 471.00 
C 171.73 467.73 168.71 464.84 165.00 462.00
C 167.64 465.78 171.53 468.03 175.00 471.00 Z"/>
</g>
<g fill="None" fill-opacity="0.0" stroke="#003441" stroke-opacity="1.00" stroke-width="0.3"><path d="
M 418.00 483.00 
C 421.38 480.11 424.62 476.83 428.00 474.00
C 424.25 476.68 421.25 479.75 418.00 483.00 Z"/>
</g>
<g fill="None" fill-opacity="0.0" stroke="#154C62" stroke-opacity="1.00" stroke-width="0.3"><path d="
M 297.00 526.00 
C 294.22 525.02 303.15 519.89 306.30 517.30 C 309.46 514.71 315.32 510.94 318.75 507.75 C 322.19 504.57 326.32 500.31 329.75 496.75 C 333.17 493.19 336.35 488.17 339.00 484.00
C 325.99 498.72 312.05 514.99 294.00 523.00
C 293.43 527.15 294.74 526.30 297.00 526.00 Z"/>
</g>
<g fill="None" fill-opacity="0.0" stroke="#003743" stroke-opacity="1.00" stroke-width="0.3"><path d="
M 228.00 509.00 
C 224.55 506.33 221.02 503.26 217.00 501.00
C 220.62 503.59 224.04 506.55 228.00 509.00 Z"/>
</g>
<g fill="None" fill-opacity="0.0" stroke="#044760" stroke-opacity="1.00" stroke-width="0.3"><path d="
M 299.00 527.00 
C 300.23 528.61 312.82 529.25 316.00 526.00
C 311.49 527.18 303.73 528.22 299.00 527.00 Z"/>
</g>
<g fill="None" fill-opacity="0.0" stroke="#003C48" stroke-opacity="1.00" stroke-width="0.3"><path d="
M 286.00 542.00 
C 280.69 538.91 274.88 535.54 269.00 533.00
C 274.46 535.98 280.05 539.43 286.00 542.00 Z"/>
</g>
<g fill="#F8F3ED" fill-opacity="1.00" stroke="None">
<path d="
M 0.00 600.00 
L 600.00 600.00
L 600.00 0.00
L 0.00 0.00
L 0.00 600.00
M 209.00 74.00 
C 235.59 74.00 260.11 86.01 280.00 103.00
C 286.85 108.86 292.39 115.56 297.00 123.00
C 298.30 125.09 299.00 126.89 300.00 129.00
C 301.70 131.86 303.42 134.90 305.00 138.00
C 305.85 139.26 306.25 140.70 307.00 142.00
C 308.77 142.21 310.37 140.46 311.00 139.00
C 314.04 135.45 317.04 131.53 320.00 128.00
C 337.05 102.11 375.57 89.00 405.00 89.00
C 408.77 88.63 413.29 88.64 417.00 89.00
C 445.36 89.00 471.43 98.55 494.00 115.00
C 502.34 121.08 510.25 129.10 517.00 137.00
C 541.03 165.11 552.00 201.00 552.00 238.00
C 552.37 241.77 552.36 246.29 552.00 250.00
C 552.00 252.67 552.00 255.33 552.00 258.00
C 552.00 261.10 551.23 264.64 551.00 267.00
C 551.00 317.09 521.33 365.16 494.00 405.00
C 491.92 408.04 489.22 410.30 487.00 413.00
C 485.82 414.95 484.61 417.11 483.00 419.00
C 469.22 435.13 454.40 451.99 438.00 466.00
C 434.67 468.84 431.43 471.55 428.00 474.00
C 424.62 476.83 421.38 480.11 418.00 483.00
C 398.50 499.67 380.83 510.08 359.30 524.30 C 337.77 538.53 312.50 553.44 286.00 542.00
C 280.05 539.43 274.46 535.98 269.00 533.00
C 254.48 526.73 241.50 517.36 228.00 509.00
C 224.04 506.55 220.62 503.59 217.00 501.00
C 202.44 492.80 187.93 482.05 175.00 471.00
C 171.53 468.03 167.64 465.78 165.00 462.00
C 164.68 461.76 164.00 462.00 164.00 462.00
C 154.57 457.39 147.95 447.03 139.75 440.25 C 131.56 433.46 123.82 423.98 117.00 416.00
C 110.08 407.90 103.34 399.81 98.00 391.00
C 95.69 387.99 93.13 385.30 91.00 382.00
C 85.48 373.45 80.00 365.26 76.00 356.00
C 74.06 352.44 71.71 348.96 70.00 345.00
C 58.05 317.31 46.00 288.14 46.00 257.00
C 45.67 253.60 45.00 249.08 45.00 245.00
C 45.00 238.67 45.00 232.33 45.00 226.00
C 45.00 222.90 45.77 219.36 46.00 217.00
C 46.00 193.90 54.11 170.75 65.00 151.00
C 66.83 147.69 69.02 144.92 71.00 142.00
C 74.03 136.38 77.70 131.04 82.00 126.00
C 86.84 120.33 92.38 114.80 98.00 110.00
C 100.66 107.73 103.25 105.67 106.00 104.00
C 110.98 100.19 115.58 96.36 121.00 93.00
C 138.83 81.96 161.68 74.00 183.00 74.00
C 191.18 73.21 200.89 73.22 209.00 74.00 Z"/>
</g>
<g fill="#003D4C" fill-opacity="1.00" stroke="None">
<path d="
M 183.00 74.00 
C 191.67 74.00 200.33 74.00 209.00 74.00
C 200.89 73.22 191.18 73.21 183.00 74.00 Z"/>
</g>
<g fill="#07616B" fill-opacity="1.00" stroke="None">
<path d="
M 121.00 93.00 
C 116.26 96.67 111.28 100.80 106.00 104.00
C 103.25 105.67 100.66 107.73 98.00 110.00
C 92.75 115.25 87.20 120.80 82.00 126.00
C 77.70 131.04 74.03 136.38 71.00 142.00
C 69.23 145.29 66.96 148.14 65.00 151.00
C 54.11 170.75 46.00 193.90 46.00 217.00
C 46.00 220.10 45.23 223.64 45.00 226.00
C 45.00 232.33 45.00 238.67 45.00 245.00
C 45.33 248.40 46.00 252.92 46.00 257.00
C 46.00 288.14 58.05 317.31 70.00 345.00
C 72.01 348.46 74.33 352.14 76.00 356.00
C 80.00 365.26 85.48 373.45 91.00 382.00
C 93.43 384.99 95.94 387.60 98.00 391.00
C 103.34 399.81 110.08 407.90 117.00 416.00
C 124.71 423.71 132.45 430.95 139.75 439.25 C 147.06 447.55 157.72 453.00 164.00 462.00
C 164.00 462.00 164.68 461.76 165.00 462.00
C 168.71 464.84 171.73 467.73 175.00 471.00
C 187.93 482.05 202.44 492.80 217.00 501.00
C 221.02 503.26 224.55 506.33 228.00 509.00
C 241.50 517.36 254.48 526.73 269.00 533.00
C 274.88 535.54 280.69 538.91 286.00 542.00
C 312.50 553.44 337.77 538.53 359.30 524.30 C 380.83 510.08 398.50 499.67 418.00 483.00
C 421.25 479.75 424.25 476.68 428.00 474.00
C 431.43 471.55 434.67 468.84 438.00 466.00
C 453.34 450.66 468.01 433.99 483.00 419.00
C 484.61 417.11 485.82 414.95 487.00 413.00
C 488.98 409.74 491.61 407.75 494.00 405.00
C 521.33 365.16 551.00 317.09 551.00 267.00
C 551.00 263.90 551.77 260.36 552.00 258.00
C 552.00 255.33 552.00 252.67 552.00 250.00
C 552.00 246.00 552.00 242.00 552.00 238.00
C 552.00 201.00 541.03 165.11 517.00 137.00
C 509.55 129.55 501.54 121.97 494.00 115.00
C 471.43 98.55 445.36 89.00 417.00 89.00
C 413.00 89.00 409.00 89.00 405.00 89.00
C 375.57 89.00 337.05 102.11 320.00 128.00
C 317.34 132.03 314.63 135.89 311.00 139.00
C 310.37 140.46 308.77 142.21 307.00 142.00
C 306.25 140.70 305.85 139.26 305.00 138.00
C 303.14 135.26 301.49 132.15 300.00 129.00
C 299.00 126.89 298.30 125.09 297.00 123.00
C 291.87 116.37 286.13 109.13 280.00 103.00
C 260.11 86.01 235.59 74.00 209.00 74.00
C 200.33 74.00 191.67 74.00 183.00 74.00
C 161.68 74.00 138.83 81.96 121.00 93.00
M 248.00 104.00 
C 248.19 104.32 248.67 104.83 249.00 105.00
C 256.33 103.47 267.35 115.72 273.75 122.25 C 280.15 128.78 287.91 140.52 290.32 150.68 C 292.73 160.83 302.47 168.14 311.08 173.92 C 319.69 179.71 335.66 181.69 342.00 186.00
C 343.11 186.75 344.30 187.39 346.00 187.00
C 345.88 201.19 355.68 215.39 371.00 215.00
C 366.60 233.33 354.51 250.80 338.00 261.00
C 326.64 253.37 323.04 246.96 308.98 243.02 C 294.91 239.09 290.75 259.94 293.00 272.00
C 291.24 272.05 289.93 270.47 288.00 271.00
C 277.10 271.99 263.88 268.31 253.32 263.68 C 242.77 259.05 229.00 255.26 218.31 261.31 C 207.61 267.35 203.38 275.01 198.08 285.08 C 192.77 295.14 190.25 309.59 188.00 318.00
C 186.31 331.95 186.17 345.32 189.00 359.00
C 190.51 362.88 193.52 371.97 195.78 378.22 C 198.03 384.48 201.53 391.29 204.77 397.23 C 208.01 403.17 212.52 408.97 216.75 414.25 C 220.99 419.53 225.46 423.90 230.25 428.75 C 235.04 433.61 239.79 437.83 244.75 442.25 C 249.72 446.66 256.07 450.94 261.08 454.92 C 266.09 458.90 273.22 462.81 278.08 465.92 C 282.94 469.04 291.86 473.87 295.75 476.25 C 299.63 478.64 314.18 484.26 313.00 486.00
C 312.77 486.34 313.00 487.00 313.00 487.00
C 315.31 490.71 302.91 498.50 298.92 501.92 C 294.92 505.34 286.16 511.10 280.30 514.30 C 274.45 517.50 265.85 510.56 259.92 507.08 C 253.99 503.60 246.91 498.93 240.77 495.23 C 234.63 491.53 228.35 486.78 222.25 482.75 C 216.16 478.71 209.93 474.26 203.92 470.08 C 197.90 465.90 192.59 460.64 186.75 456.25 C 180.91 451.85 175.20 447.30 169.75 442.25 C 164.30 437.20 158.62 433.01 153.25 427.75 C 147.88 422.50 143.15 417.25 138.25 411.75 C 133.34 406.26 128.14 401.07 123.75 395.25 C 119.37 389.43 115.14 383.05 110.70 377.30 C 106.25 371.56 101.96 364.27 100.00 359.00
C 84.74 334.35 73.85 307.19 68.00 279.00
C 82.03 289.38 100.60 295.88 118.00 292.00
C 117.54 292.16 123.10 290.39 128.67 288.67 C 134.24 286.95 134.54 286.21 141.08 282.08 C 147.63 277.95 155.23 269.27 158.30 262.31 C 161.38 255.34 162.54 255.64 163.78 249.78 C 165.01 243.91 166.76 238.25 167.00 238.00
C 167.17 237.26 167.89 236.26 168.00 235.00
C 167.50 225.20 166.49 210.74 165.00 201.00 C 163.51 191.26 160.40 178.62 158.02 169.98 C 155.65 161.33 154.97 146.70 143.99 147.01 C 133.02 147.31 139.56 169.71 140.00 175.00
C 144.53 195.47 150.83 221.17 146.07 242.07 C 141.31 262.97 123.09 277.22 102.00 273.00
C 92.52 272.56 83.09 268.78 75.75 260.25 C 68.41 251.71 64.90 241.60 64.02 229.98 C 63.15 218.35 65.23 202.71 67.93 191.93 C 70.62 181.14 74.83 171.29 79.77 161.77 C 84.72 152.25 90.28 145.20 97.25 137.25 C 104.21 129.30 110.24 122.88 118.70 116.70 C 127.15 110.52 135.26 104.95 145.23 101.23 C 155.20 97.51 167.25 93.12 178.01 92.01 C 188.76 90.89 207.63 89.32 217.22 92.78 C 226.82 96.24 242.61 94.90 248.00 104.00
M 528.00 201.00 
C 529.36 206.42 531.13 212.87 532.00 218.00
C 532.08 218.18 534.81 226.69 534.78 233.22 C 534.75 239.75 535.63 248.70 535.00 256.00 C 534.37 263.30 533.46 268.00 532.07 276.07 C 530.68 284.14 532.06 285.89 528.22 295.22 C 524.38 304.55 523.76 321.56 516.00 329.00
C 515.74 329.25 515.21 329.70 515.00 330.00
C 516.28 334.91 509.80 345.07 507.22 350.22 C 504.65 355.38 499.90 365.07 496.23 369.23 C 492.56 373.39 489.46 385.94 484.00 387.00
C 483.71 387.06 483.22 386.30 483.00 386.00
C 478.54 379.95 483.11 365.43 480.07 357.93 C 477.03 350.43 477.51 340.69 473.68 333.32 C 469.84 325.96 467.72 320.39 462.25 313.75 C 456.78 307.11 461.55 293.30 459.67 285.33 C 457.79 277.36 457.83 266.54 454.68 259.32 C 451.53 252.10 449.11 243.59 445.69 237.31 C 442.28 231.02 439.36 219.97 431.00 221.00 C 422.64 222.04 417.96 228.03 411.75 232.75 C 405.55 237.47 402.06 243.16 396.75 248.75 C 391.44 254.34 389.36 260.79 383.75 266.75 C 378.14 272.71 364.19 269.16 357.00 270.00
C 361.89 262.31 371.42 254.73 375.77 246.77 C 380.12 238.81 380.29 239.47 383.31 233.31 C 386.32 227.14 387.16 223.31 388.93 217.93 C 390.69 212.55 391.49 204.07 393.00 205.00
C 393.65 201.02 394.65 195.67 394.00 191.00
C 393.40 188.97 389.79 179.71 385.25 175.75 C 380.71 171.80 370.87 171.02 364.00 171.00 C 357.13 170.98 346.87 170.63 339.93 169.07 C 332.98 167.51 325.60 165.75 319.00 163.00
C 326.85 138.84 352.17 117.45 376.00 113.00
C 376.35 112.87 376.79 112.30 377.00 112.00
C 382.10 104.79 398.50 107.80 407.02 106.02 C 415.55 104.25 430.47 108.35 439.22 109.78 C 447.98 111.20 458.02 115.22 466.07 118.93 C 474.13 122.63 480.83 128.71 488.23 133.77 C 495.63 138.83 499.96 145.51 505.75 152.25 C 511.54 158.98 515.43 166.27 519.77 174.23 C 524.12 182.19 527.32 192.85 528.00 201.00
M 317.00 525.00 
C 316.65 525.13 316.25 525.75 316.00 526.00
C 312.82 529.25 300.23 528.61 299.00 527.00
C 298.36 526.83 298.24 525.84 297.00 526.00
C 294.74 526.30 293.43 527.15 294.00 523.00
C 312.05 514.99 325.99 498.72 339.00 484.00
C 339.32 483.80 339.83 483.33 340.00 483.00
C 338.84 477.42 345.97 470.30 345.99 462.99 C 346.01 455.68 344.48 446.62 337.75 442.25 C 331.03 437.88 324.50 435.48 316.98 435.02 C 309.46 434.57 300.87 431.17 294.92 428.08 C 288.98 424.98 282.63 419.80 279.25 415.75 C 275.86 411.70 266.41 401.49 270.00 398.00
C 270.05 398.15 271.00 398.00 271.00 398.00
C 274.00 396.03 281.44 399.32 284.75 394.75 C 288.07 390.18 292.51 387.47 291.00 381.00
C 282.77 383.56 266.36 380.36 273.75 372.75 C 281.15 365.14 284.02 362.27 286.78 353.78 C 289.53 345.28 292.40 338.61 296.31 331.31 C 300.21 324.00 303.46 318.89 309.25 313.25 C 315.04 307.60 320.15 302.87 327.23 299.23 C 334.31 295.59 341.49 291.06 349.68 289.68 C 357.87 288.30 367.77 283.52 377.00 286.00 C 386.23 288.48 393.82 284.78 397.31 276.31 C 400.79 267.83 406.89 265.25 411.25 258.25 C 415.60 251.25 420.19 246.27 427.00 242.00
C 436.05 253.41 437.60 266.23 441.00 280.00 C 444.40 293.77 439.46 312.97 448.75 324.25 C 458.04 335.53 461.26 348.02 463.99 362.01 C 466.72 375.99 464.98 395.46 460.02 408.02 C 455.07 420.59 448.78 430.15 439.75 439.75 C 430.72 449.35 421.19 456.17 411.75 464.75 C 402.32 473.34 392.54 480.14 382.30 487.30 C 372.07 494.47 361.73 501.86 350.92 507.92 C 340.12 513.99 328.52 524.10 317.00 525.00
M 314.00 287.00 
C 310.93 285.57 311.01 270.99 313.00 269.00
C 315.10 266.90 326.64 277.81 327.00 281.00
C 322.75 283.29 318.89 286.31 314.00 287.00
M 296.00 290.00 
C 300.87 301.24 290.07 309.77 284.08 319.08 C 278.09 328.40 274.23 341.02 270.02 351.02 C 265.82 361.02 252.78 364.70 250.22 376.22 C 247.67 387.75 250.49 403.93 256.31 413.69 C 262.12 423.46 267.86 431.55 277.25 437.75 C 286.63 443.95 298.69 450.60 310.00 451.00 C 321.31 451.39 337.96 460.65 325.00 470.00
C 308.88 464.68 293.12 455.59 279.25 445.75 C 265.39 435.91 253.04 426.61 240.75 414.25 C 228.46 401.89 219.96 388.32 212.23 372.77 C 204.50 357.22 203.55 328.18 206.99 311.99 C 210.43 295.81 219.67 270.96 239.07 275.93 C 258.48 280.89 275.15 290.47 296.00 290.00 Z"/>
</g>
<g fill="#002C3A" fill-opacity="1.00" stroke="None">
<path d="
M 405.00 89.00 
C 409.00 89.00 413.00 89.00 417.00 89.00
C 413.29 88.64 408.77 88.63 405.00 89.00 Z"/>
</g>
<g fill="#044B59" fill-opacity="1.00" stroke="None">
<path d="
M 102.00 273.00 
C 81.39 268.88 66.43 252.41 66.00 231.00
C 65.42 226.22 65.55 220.69 66.00 216.00
C 66.00 127.71 170.45 65.85 248.00 104.00
C 242.61 94.90 226.82 96.24 217.22 92.78 C 207.63 89.32 188.76 90.89 178.01 92.01 C 167.25 93.12 155.20 97.51 145.23 101.23 C 135.26 104.95 127.15 110.52 118.70 116.70 C 110.24 122.88 104.21 129.30 97.25 137.25 C 90.28 145.20 84.72 152.25 79.77 161.77 C 74.83 171.29 70.62 181.14 67.93 191.93 C 65.23 202.71 63.15 218.35 64.02 229.98 C 64.90 241.60 68.41 251.71 75.75 260.25 C 83.09 268.78 92.52 272.56 102.00 273.00 Z"/>
</g>
<g fill="#66C1BC" fill-opacity="1.00" stroke="None">
<path d="
M 66.00 216.00 
C 66.00 221.00 65.90 226.00 66.00 231.00
C 66.43 252.41 81.39 268.88 102.00 273.00
C 123.09 277.22 141.31 262.97 146.07 242.07 C 150.83 221.17 144.53 195.47 140.00 175.00
C 138.50 168.23 129.94 149.72 141.23 146.23 C 152.52 142.74 157.45 157.66 158.93 167.07 C 160.41 176.49 164.46 187.63 165.93 198.07 C 167.40 208.52 168.97 223.66 168.00 235.00
C 167.89 236.26 167.17 237.26 167.00 238.00
C 163.99 251.48 161.65 263.07 151.75 273.75 C 141.86 284.43 131.91 289.74 118.00 292.00
C 100.60 295.88 82.03 289.38 68.00 279.00
C 73.85 307.19 84.74 334.35 100.00 359.00
C 106.19 369.00 113.00 378.62 119.92 388.08 C 126.84 397.54 134.86 406.49 142.75 415.25 C 150.65 424.01 159.14 431.35 167.75 439.25 C 176.36 447.14 186.09 454.50 195.25 461.75 C 204.40 469.00 214.75 476.09 224.23 482.77 C 233.71 489.45 244.51 495.91 254.08 501.92 C 263.65 507.92 276.47 519.21 285.70 509.70 C 294.93 500.19 307.02 499.21 313.00 487.00
C 313.00 487.00 312.77 486.34 313.00 486.00
C 286.01 470.50 260.28 459.40 236.75 437.25 C 213.22 415.10 195.44 390.12 189.00 359.00
C 186.17 345.32 186.31 331.95 188.00 318.00
C 190.50 297.32 196.59 270.16 218.08 260.08 C 239.58 250.00 265.56 268.75 288.00 271.00
C 289.93 270.47 291.24 272.05 293.00 272.00
C 290.75 259.94 294.91 239.09 308.98 243.02 C 323.04 246.96 326.64 253.37 338.00 261.00
C 354.51 250.80 366.60 233.33 371.00 215.00
C 355.68 215.39 345.88 201.19 346.00 187.00
C 344.30 187.39 343.11 186.75 342.00 186.00
C 323.46 179.49 295.97 173.64 289.22 151.78 C 282.48 129.91 268.68 114.81 249.00 105.00
C 248.67 104.83 248.19 104.32 248.00 104.00
C 170.45 65.85 66.00 127.71 66.00 216.00
M 250.00 160.00 
C 264.66 167.29 256.12 193.88 239.00 188.00 C 221.88 182.12 230.88 156.89 248.00 159.00
C 249.53 159.19 248.97 159.49 250.00 160.00 Z"/>
</g>
<g fill="#003946" fill-opacity="1.00" stroke="None">
<path d="
M 106.00 104.00 
C 111.28 100.80 116.26 96.67 121.00 93.00
C 115.58 96.36 110.98 100.19 106.00 104.00 Z"/>
</g>
<g fill="#00313D" fill-opacity="1.00" stroke="None">
<path d="
M 297.00 123.00 
C 292.39 115.56 286.85 108.86 280.00 103.00
C 286.13 109.13 291.87 116.37 297.00 123.00 Z"/>
</g>
<g fill="#044A58" fill-opacity="1.00" stroke="None">
<path d="
M 249.00 105.00 
C 268.68 114.81 282.48 129.91 289.22 151.78 C 295.97 173.64 323.46 179.49 342.00 186.00
C 335.66 181.69 319.69 179.71 311.08 173.92 C 302.47 168.14 292.73 160.83 290.32 150.68 C 287.91 140.52 280.15 128.78 273.75 122.25 C 267.35 115.72 256.33 103.47 249.00 105.00 Z"/>
</g>
<g fill="#154D63" fill-opacity="1.00" stroke="None">
<path d="
M 377.00 112.00 
C 390.34 108.52 403.65 108.00 418.00 108.00
C 422.23 108.00 425.95 108.32 430.00 109.00
C 453.02 112.89 473.08 122.69 491.00 138.00
C 494.60 141.07 497.97 144.45 501.00 148.00
C 514.30 163.56 523.10 181.51 528.00 201.00
C 527.32 192.85 524.12 182.19 519.77 174.23 C 515.43 166.27 511.54 158.98 505.75 152.25 C 499.96 145.51 495.63 138.83 488.23 133.77 C 480.83 128.71 474.13 122.63 466.07 118.93 C 458.02 115.22 447.98 111.20 439.22 109.78 C 430.47 108.35 415.55 104.25 407.02 106.02 C 398.50 107.80 382.10 104.79 377.00 112.00 Z"/>
</g>
<g fill="#EDD9A1" fill-opacity="1.00" stroke="None">
<path d="
M 377.00 112.00 
C 376.79 112.30 376.35 112.87 376.00 113.00
C 352.65 121.81 330.48 137.14 320.00 161.00
C 341.58 179.09 388.06 155.13 394.00 191.00
C 394.65 195.67 393.65 201.02 393.00 205.00
C 389.04 229.40 377.55 251.53 359.00 269.00
C 366.37 267.58 374.27 268.05 382.00 268.00
C 393.58 249.41 408.55 228.16 430.00 220.00
C 425.13 216.45 416.96 225.84 412.25 229.25 C 407.54 232.65 401.65 238.13 397.75 243.75 C 393.85 249.38 388.31 252.87 385.23 260.23 C 382.15 267.59 371.18 268.37 363.00 267.00
C 374.68 255.02 384.90 239.07 389.93 223.93 C 394.95 208.78 402.01 179.32 382.92 171.08 C 363.83 162.84 340.15 172.58 322.00 161.00
C 338.00 124.00 380.35 107.76 418.00 108.00
C 403.65 108.00 390.34 108.52 377.00 112.00 Z"/>
</g>
<g fill="#F7C799" fill-opacity="1.00" stroke="None">
<path d="
M 430.00 220.00 
C 430.47 219.89 431.00 220.00 431.00 220.00
C 433.29 213.73 443.94 224.51 444.92 230.08 C 445.91 235.64 452.12 242.68 453.92 249.08 C 455.72 255.47 459.02 263.74 459.99 271.01 C 460.96 278.28 464.40 288.00 463.00 296.00 C 461.60 304.00 464.21 312.66 468.77 318.23 C 473.33 323.80 476.19 331.07 477.93 337.07 C 479.67 343.08 485.96 353.91 482.00 359.00
C 482.01 359.50 482.00 360.00 482.00 360.00
C 487.51 361.47 482.68 377.23 486.00 381.00
C 492.85 369.48 499.07 360.17 504.92 347.92 C 510.78 335.68 516.48 324.24 520.93 310.93 C 525.37 297.61 528.68 283.33 530.78 268.78 C 532.88 254.23 532.10 233.23 530.02 218.98 C 527.94 204.72 524.60 190.73 518.70 178.31 C 512.79 165.88 506.75 156.28 497.75 146.25 C 488.75 136.22 479.60 130.66 468.30 123.70 C 457.01 116.73 440.91 113.80 430.00 109.00
C 425.95 108.32 422.23 108.00 418.00 108.00
C 380.35 107.76 338.00 124.00 322.00 161.00
C 340.15 172.58 363.83 162.84 382.92 171.08 C 402.01 179.32 394.95 208.78 389.93 223.93 C 384.90 239.07 374.68 255.02 363.00 267.00
C 371.18 268.37 382.15 267.59 385.23 260.23 C 388.31 252.87 393.85 249.38 397.75 243.75 C 401.65 238.13 407.54 232.65 412.25 229.25 C 416.96 225.84 425.13 216.45 430.00 220.00 Z"/>
</g>
<g fill="#EBD79F" fill-opacity="1.00" stroke="None">
<path d="
M 482.00 360.00 
C 483.38 368.39 481.77 377.43 483.00 386.00
C 483.22 386.30 483.71 387.06 484.00 387.00
C 490.47 378.72 493.84 367.86 500.31 359.30 C 506.77 350.75 509.01 338.70 515.00 330.00
C 515.21 329.70 515.74 329.25 516.00 329.00
C 523.09 302.71 533.00 279.62 533.00 251.00
C 533.00 246.33 533.00 241.67 533.00 237.00
C 533.00 230.58 533.05 224.22 532.00 218.00
C 531.13 212.87 529.36 206.42 528.00 201.00
C 523.10 181.51 514.30 163.56 501.00 148.00
C 497.75 144.75 494.21 141.21 491.00 138.00
C 473.08 122.69 453.02 112.89 430.00 109.00
C 440.91 113.80 457.01 116.73 468.30 123.70 C 479.60 130.66 488.75 136.22 497.75 146.25 C 506.75 156.28 512.79 165.88 518.70 178.31 C 524.60 190.73 527.94 204.72 530.02 218.98 C 532.10 233.23 532.88 254.23 530.78 268.78 C 528.68 283.33 525.37 297.61 520.93 310.93 C 516.48 324.24 510.78 335.68 504.92 347.92 C 499.07 360.17 492.85 369.48 486.00 381.00
C 482.68 377.23 487.51 361.47 482.00 360.00 Z"/>
</g>
<g fill="#003440" fill-opacity="1.00" stroke="None">
<path d="
M 82.00 126.00 
C 87.20 120.80 92.75 115.25 98.00 110.00
C 92.38 114.80 86.84 120.33 82.00 126.00 Z"/>
</g>
<g fill="#144D64" fill-opacity="1.00" stroke="None">
<path d="
M 394.00 191.00 
C 388.06 155.13 341.58 179.09 320.00 161.00
C 330.48 137.14 352.65 121.81 376.00 113.00
C 352.17 117.45 326.85 138.84 319.00 163.00
C 325.60 165.75 332.98 167.51 339.93 169.07 C 346.87 170.63 357.13 170.98 364.00 171.00 C 370.87 171.02 380.71 171.80 385.25 175.75 C 389.79 179.71 393.40 188.97 394.00 191.00 Z"/>
</g>
<g fill="#003C49" fill-opacity="1.00" stroke="None">
<path d="
M 517.00 137.00 
C 510.25 129.10 502.34 121.08 494.00 115.00
C 501.54 121.97 509.55 129.55 517.00 137.00 Z"/>
</g>
<g fill="#003844" fill-opacity="1.00" stroke="None">
<path d="
M 311.00 139.00 
C 314.63 135.89 317.34 132.03 320.00 128.00
C 317.04 131.53 314.04 135.45 311.00 139.00 Z"/>
</g>
<g fill="#003643" fill-opacity="1.00" stroke="None">
<path d="
M 305.00 138.00 
C 303.42 134.90 301.70 131.86 300.00 129.00
C 301.49 132.15 303.14 135.26 305.00 138.00 Z"/>
</g>
<g fill="#A2A389" fill-opacity="1.00" stroke="None">
<path d="
M 501.00 148.00 
C 497.97 144.45 494.60 141.07 491.00 138.00
C 494.21 141.21 497.75 144.75 501.00 148.00 Z"/>
</g>
<g fill="#003B49" fill-opacity="1.00" stroke="None">
<path d="
M 65.00 151.00 
C 66.96 148.14 69.23 145.29 71.00 142.00
C 69.02 144.92 66.83 147.69 65.00 151.00 Z"/>
</g>
<g fill="#044C59" fill-opacity="1.00" stroke="None">
<path d="
M 140.00 175.00 
C 139.56 169.71 133.02 147.31 143.99 147.01 C 154.97 146.70 155.65 161.33 158.02 169.98 C 160.40 178.62 163.51 191.26 165.00 201.00 C 166.49 210.74 167.50 225.20 168.00 235.00
C 168.97 223.66 167.40 208.52 165.93 198.07 C 164.46 187.63 160.41 176.49 158.93 167.07 C 157.45 157.66 152.52 142.74 141.23 146.23 C 129.94 149.72 138.50 168.23 140.00 175.00 Z"/>
</g>
<g fill="#054A58" fill-opacity="1.00" stroke="None">
<path d="
M 250.00 160.00 
C 253.91 165.31 260.53 174.45 253.23 182.23 C 245.93 190.01 233.85 188.43 231.22 177.78 C 228.60 167.12 239.03 159.89 248.00 159.00
C 230.88 156.89 221.88 182.12 239.00 188.00 C 256.12 193.88 264.66 167.29 250.00 160.00 Z"/>
</g>
<g fill="#07626C" fill-opacity="1.00" stroke="None">
<path d="
M 250.00 160.00 
C 248.97 159.49 249.53 159.19 248.00 159.00
C 239.03 159.89 228.60 167.12 231.22 177.78 C 233.85 188.43 245.93 190.01 253.23 182.23 C 260.53 174.45 253.91 165.31 250.00 160.00 Z"/>
</g>
<g fill="#124D63" fill-opacity="1.00" stroke="None">
<path d="
M 483.00 386.00 
C 481.77 377.43 483.38 368.39 482.00 360.00
C 482.00 360.00 482.01 359.50 482.00 359.00
C 481.77 348.97 476.50 339.56 473.70 330.31 C 470.89 321.05 461.74 314.67 461.00 305.00
C 460.60 299.74 461.00 294.28 461.00 289.00
C 461.00 277.20 457.41 258.58 452.08 248.92 C 446.74 239.27 444.41 219.10 431.00 220.00
C 431.00 220.00 430.47 219.89 430.00 220.00
C 408.55 228.16 393.58 249.41 382.00 268.00
C 374.27 268.05 366.37 267.58 359.00 269.00
C 377.55 251.53 389.04 229.40 393.00 205.00
C 391.49 204.07 390.69 212.55 388.93 217.93 C 387.16 223.31 386.32 227.14 383.31 233.31 C 380.29 239.47 380.12 238.81 375.77 246.77 C 371.42 254.73 361.89 262.31 357.00 270.00
C 364.19 269.16 378.14 272.71 383.75 266.75 C 389.36 260.79 391.44 254.34 396.75 248.75 C 402.06 243.16 405.55 237.47 411.75 232.75 C 417.96 228.03 422.64 222.04 431.00 221.00 C 439.36 219.97 442.28 231.02 445.69 237.31 C 449.11 243.59 451.53 252.10 454.68 259.32 C 457.83 266.54 457.79 277.36 459.67 285.33 C 461.55 293.30 456.78 307.11 462.25 313.75 C 467.72 320.39 469.84 325.96 473.68 333.32 C 477.51 340.69 477.03 350.43 480.07 357.93 C 483.11 365.43 478.54 379.95 483.00 386.00 Z"/>
</g>
<g fill="#268087" fill-opacity="1.00" stroke="None">
<path d="
M 66.00 231.00 
C 65.90 226.00 66.00 221.00 66.00 216.00
C 65.55 220.69 65.42 226.22 66.00 231.00 Z"/>
</g>
<g fill="#144F64" fill-opacity="1.00" stroke="None">
<path d="
M 532.00 218.00 
C 533.05 224.22 533.00 230.58 533.00 237.00
C 533.43 241.40 533.42 246.66 533.00 251.00
C 533.00 279.62 523.09 302.71 516.00 329.00
C 523.76 321.56 524.38 304.55 528.22 295.22 C 532.06 285.89 530.68 284.14 532.07 276.07 C 533.46 268.00 534.37 263.30 535.00 256.00 C 535.63 248.70 534.75 239.75 534.78 233.22 C 534.81 226.69 532.08 218.18 532.00 218.00 Z"/>
</g>
<g fill="#003946" fill-opacity="1.00" stroke="None">
<path d="
M 45.00 226.00 
C 45.23 223.64 46.00 220.10 46.00 217.00
C 45.77 219.36 45.00 222.90 45.00 226.00 Z"/>
</g>
<g fill="#ECD79F" fill-opacity="1.00" stroke="None">
<path d="
M 431.00 220.00 
C 444.41 219.10 446.74 239.27 452.08 248.92 C 457.41 258.58 461.00 277.20 461.00 289.00
C 461.47 293.85 461.10 300.32 461.00 305.00
C 461.74 314.67 470.89 321.05 473.70 330.31 C 476.50 339.56 481.77 348.97 482.00 359.00
C 485.96 353.91 479.67 343.08 477.93 337.07 C 476.19 331.07 473.33 323.80 468.77 318.23 C 464.21 312.66 461.60 304.00 463.00 296.00 C 464.40 288.00 460.96 278.28 459.99 271.01 C 459.02 263.74 455.72 255.47 453.92 249.08 C 452.12 242.68 445.91 235.64 444.92 230.08 C 443.94 224.51 433.29 213.73 431.00 220.00 Z"/>
</g>
<g fill="#044B59" fill-opacity="1.00" stroke="None">
<path d="
M 118.00 292.00 
C 131.91 289.74 141.86 284.43 151.75 273.75 C 161.65 263.07 163.99 251.48 167.00 238.00
C 166.76 238.25 165.01 243.91 163.78 249.78 C 162.54 255.64 161.38 255.34 158.30 262.31 C 155.23 269.27 147.63 277.95 141.08 282.08 C 134.54 286.21 134.24 286.95 128.67 288.67 C 123.10 290.39 117.54 292.16 118.00 292.00 Z"/>
</g>
<g fill="#808C83" fill-opacity="1.00" stroke="None">
<path d="
M 533.00 251.00 
C 533.42 246.66 533.43 241.40 533.00 237.00
C 533.00 241.67 533.00 246.33 533.00 251.00 Z"/>
</g>
<g fill="#003142" fill-opacity="1.00" stroke="None">
<path d="
M 552.00 250.00 
C 552.36 246.29 552.37 241.77 552.00 238.00
C 552.00 242.00 552.00 246.00 552.00 250.00 Z"/>
</g>
<g fill="#144D63" fill-opacity="1.00" stroke="None">
<path d="
M 271.00 398.00 
C 284.14 405.52 304.20 378.05 282.00 380.00
C 280.18 380.16 275.62 380.76 274.00 380.00
C 271.36 378.77 272.15 377.13 273.00 375.00
C 274.65 370.87 280.27 368.13 283.00 365.00
C 293.01 351.53 293.28 334.23 304.75 320.75 C 316.23 307.28 328.25 300.27 344.07 293.07 C 359.90 285.88 386.18 293.88 396.30 280.30 C 406.43 266.73 413.25 253.75 427.00 244.00
C 434.23 261.25 445.14 279.66 442.00 300.00 C 438.86 320.34 455.76 332.99 460.00 352.00
C 460.15 352.43 460.78 353.25 461.00 354.00
C 473.67 396.18 447.54 437.44 414.25 461.25 C 380.96 485.06 354.90 510.70 317.00 525.00
C 328.52 524.10 340.12 513.99 350.92 507.92 C 361.73 501.86 372.07 494.47 382.30 487.30 C 392.54 480.14 402.32 473.34 411.75 464.75 C 421.19 456.17 430.72 449.35 439.75 439.75 C 448.78 430.15 455.07 420.59 460.02 408.02 C 464.98 395.46 466.72 375.99 463.99 362.01 C 461.26 348.02 458.04 335.53 448.75 324.25 C 439.46 312.97 444.40 293.77 441.00 280.00 C 437.60 266.23 436.05 253.41 427.00 242.00
C 420.19 246.27 415.60 251.25 411.25 258.25 C 406.89 265.25 400.79 267.83 397.31 276.31 C 393.82 284.78 386.23 288.48 377.00 286.00 C 367.77 283.52 357.87 288.30 349.68 289.68 C 341.49 291.06 334.31 295.59 327.23 299.23 C 320.15 302.87 315.04 307.60 309.25 313.25 C 303.46 318.89 300.21 324.00 296.31 331.31 C 292.40 338.61 289.53 345.28 286.78 353.78 C 284.02 362.27 281.15 365.14 273.75 372.75 C 266.36 380.36 282.77 383.56 291.00 381.00
C 292.51 387.47 288.07 390.18 284.75 394.75 C 281.44 399.32 274.00 396.03 271.00 398.00 Z"/>
</g>
<g fill="#ECD79F" fill-opacity="1.00" stroke="None">
<path d="
M 283.00 365.00 
C 280.58 368.26 274.64 371.69 273.00 375.00
C 272.15 377.13 271.36 378.77 274.00 380.00
C 276.19 378.00 272.29 378.28 273.00 376.00
C 284.37 369.35 287.91 357.76 291.98 346.98 C 296.04 336.19 300.69 326.97 308.75 317.75 C 316.82 308.54 325.18 302.15 336.70 297.69 C 348.21 293.24 361.20 286.65 375.00 290.00 C 388.80 293.35 398.71 282.32 404.25 271.25 C 409.80 260.19 418.30 253.56 427.00 246.00
C 432.76 257.02 436.06 268.92 438.93 281.07 C 441.79 293.23 436.44 312.86 444.25 322.75 C 452.06 332.64 455.53 343.50 460.00 352.00
C 455.76 332.99 438.86 320.34 442.00 300.00 C 445.14 279.66 434.23 261.25 427.00 244.00
C 413.25 253.75 406.43 266.73 396.30 280.30 C 386.18 293.88 359.90 285.88 344.07 293.07 C 328.25 300.27 316.23 307.28 304.75 320.75 C 293.28 334.23 293.01 351.53 283.00 365.00 Z"/>
</g>
<g fill="#00404F" fill-opacity="1.00" stroke="None">
<path d="
M 46.00 257.00 
C 46.00 252.92 45.33 248.40 45.00 245.00
C 45.00 249.08 45.67 253.60 46.00 257.00 Z"/>
</g>
<g fill="#F7C799" fill-opacity="1.00" stroke="None">
<path d="
M 274.00 380.00 
C 275.62 380.76 280.18 380.16 282.00 380.00
C 281.69 379.94 280.11 378.54 280.00 378.00
C 291.33 374.49 296.24 382.19 291.25 390.25 C 286.25 398.30 282.88 399.85 274.00 402.00
C 284.33 422.82 300.88 431.01 324.67 433.33 C 348.46 435.65 354.14 466.40 341.23 483.23 C 328.32 500.06 316.22 512.72 300.00 525.00
C 328.68 525.14 351.60 504.11 375.23 489.23 C 398.86 474.35 415.92 458.29 437.25 438.25 C 458.58 418.21 466.61 381.80 461.00 354.00
C 460.78 353.25 460.15 352.43 460.00 352.00
C 455.53 343.50 452.06 332.64 444.25 322.75 C 436.44 312.86 441.79 293.23 438.93 281.07 C 436.06 268.92 432.76 257.02 427.00 246.00
C 418.30 253.56 409.80 260.19 404.25 271.25 C 398.71 282.32 388.80 293.35 375.00 290.00 C 361.20 286.65 348.21 293.24 336.70 297.69 C 325.18 302.15 316.82 308.54 308.75 317.75 C 300.69 326.97 296.04 336.19 291.98 346.98 C 287.91 357.76 284.37 369.35 273.00 376.00
C 272.29 378.28 276.19 378.00 274.00 380.00
M 332.00 343.00 
C 332.44 342.84 333.00 343.00 333.00 343.00
C 335.69 337.08 352.28 342.64 351.92 351.08 C 351.57 359.51 348.75 366.89 339.97 370.97 C 331.19 375.06 322.63 367.14 320.67 360.33 C 318.71 353.51 327.68 339.95 332.00 343.00
M 353.00 386.00 
C 362.62 386.93 368.24 387.73 378.22 390.78 C 388.20 393.82 380.67 405.12 370.98 399.02 C 361.28 392.93 354.93 400.73 344.00 396.00 C 333.07 391.27 341.77 384.91 353.00 386.00
M 340.00 400.00 
C 347.29 400.93 350.15 408.44 358.08 409.92 C 366.01 411.40 367.86 423.11 358.78 421.22 C 349.69 419.33 349.06 412.34 340.32 411.68 C 331.58 411.02 330.30 398.76 340.00 400.00 Z"/>
</g>
<g fill="#054E5B" fill-opacity="1.00" stroke="None">
<path d="
M 188.00 318.00 
C 190.25 309.59 192.77 295.14 198.08 285.08 C 203.38 275.01 207.61 267.35 218.31 261.31 C 229.00 255.26 242.77 259.05 253.32 263.68 C 263.88 268.31 277.10 271.99 288.00 271.00
C 265.56 268.75 239.58 250.00 218.08 260.08 C 196.59 270.16 190.50 297.32 188.00 318.00 Z"/>
</g>
<g fill="#003B4A" fill-opacity="1.00" stroke="None">
<path d="
M 551.00 267.00 
C 551.23 264.64 552.00 261.10 552.00 258.00
C 551.77 260.36 551.00 263.90 551.00 267.00 Z"/>
</g>
<g fill="#E9D8A1" fill-opacity="1.00" stroke="None">
<path d="
M 313.00 269.00 
C 310.05 273.96 315.83 281.82 314.00 287.00
C 318.89 286.31 322.75 283.29 327.00 281.00
C 326.64 277.81 315.10 266.90 313.00 269.00
M 326.00 280.00 
C 323.00 282.45 319.50 283.62 316.00 285.00
C 314.37 280.69 315.19 275.68 315.00 271.00
C 319.04 273.33 323.34 275.99 326.00 280.00 Z"/>
</g>
<g fill="#054761" fill-opacity="1.00" stroke="None">
<path d="
M 314.00 287.00 
C 315.83 281.82 310.05 273.96 313.00 269.00
C 311.01 270.99 310.93 285.57 314.00 287.00 Z"/>
</g>
<g fill="#F7C798" fill-opacity="1.00" stroke="None">
<path d="
M 326.00 280.00 
C 323.34 275.99 319.04 273.33 315.00 271.00
C 315.19 275.68 314.37 280.69 316.00 285.00
C 319.50 283.62 323.00 282.45 326.00 280.00 Z"/>
</g>
<g fill="#F7F3EC" fill-opacity="1.00" stroke="None">
<path d="
M 296.00 290.00 
C 275.15 290.47 258.48 280.89 239.07 275.93 C 219.67 270.96 210.43 295.81 206.99 311.99 C 203.55 328.18 204.50 357.22 212.23 372.77 C 219.96 388.32 228.46 401.89 240.75 414.25 C 253.04 426.61 265.39 435.91 279.25 445.75 C 293.12 455.59 308.88 464.68 325.00 470.00
C 337.96 460.65 321.31 451.39 310.00 451.00 C 298.69 450.60 286.63 443.95 277.25 437.75 C 267.86 431.55 262.12 423.46 256.31 413.69 C 250.49 403.93 247.67 387.75 250.22 376.22 C 252.78 364.70 265.82 361.02 270.02 351.02 C 274.23 341.02 278.09 328.40 284.08 319.08 C 290.07 309.77 300.87 301.24 296.00 290.00 Z"/>
</g>
<g fill="#5D807B" fill-opacity="1.00" stroke="None">
<path d="
M 461.00 305.00 
C 461.10 300.32 461.47 293.85 461.00 289.00
C 461.00 294.28 460.60 299.74 461.00 305.00 Z"/>
</g>
<g fill="#124C62" fill-opacity="1.00" stroke="None">
<path d="
M 484.00 387.00 
C 489.46 385.94 492.56 373.39 496.23 369.23 C 499.90 365.07 504.65 355.38 507.22 350.22 C 509.80 345.07 516.28 334.91 515.00 330.00
C 509.01 338.70 506.77 350.75 500.31 359.30 C 493.84 367.86 490.47 378.72 484.00 387.00 Z"/>
</g>
<g fill="#EED8A0" fill-opacity="1.00" stroke="None">
<path d="
M 333.00 343.00 
C 340.08 340.49 350.66 344.61 350.93 353.07 C 351.20 361.54 344.70 367.42 338.00 370.00
C 337.28 370.28 337.16 370.85 336.00 371.00
C 319.02 373.16 318.29 347.95 332.00 343.00
C 327.68 339.95 318.71 353.51 320.67 360.33 C 322.63 367.14 331.19 375.06 339.97 370.97 C 348.75 366.89 351.57 359.51 351.92 351.08 C 352.28 342.64 335.69 337.08 333.00 343.00 Z"/>
</g>
<g fill="#154D63" fill-opacity="1.00" stroke="None">
<path d="
M 333.00 343.00 
C 333.00 343.00 332.44 342.84 332.00 343.00
C 318.29 347.95 319.02 373.16 336.00 371.00
C 326.11 369.49 320.84 359.34 325.77 350.77 C 330.70 342.21 341.99 340.45 347.92 349.08 C 353.85 357.71 341.13 366.66 338.00 370.00
C 344.70 367.42 351.20 361.54 350.93 353.07 C 350.66 344.61 340.08 340.49 333.00 343.00 Z"/>
</g>
<g fill="#08616C" fill-opacity="1.00" stroke="None">
<path d="
M 336.00 371.00 
C 337.16 370.85 337.28 370.28 338.00 370.00
C 341.13 366.66 353.85 357.71 347.92 349.08 C 341.99 340.45 330.70 342.21 325.77 350.77 C 320.84 359.34 326.11 369.49 336.00 371.00 Z"/>
</g>
<g fill="#003643" fill-opacity="1.00" stroke="None">
<path d="
M 76.00 356.00 
C 74.33 352.14 72.01 348.46 70.00 345.00
C 71.71 348.96 74.06 352.44 76.00 356.00 Z"/>
</g>
<g fill="#ECD8A0" fill-opacity="1.00" stroke="None">
<path d="
M 282.00 380.00 
C 304.20 378.05 284.14 405.52 271.00 398.00
C 271.00 398.00 270.05 398.15 270.00 398.00
C 274.69 412.03 283.86 419.65 296.70 427.31 C 309.53 434.96 325.46 431.42 338.75 441.25 C 352.03 451.09 346.48 470.49 340.00 483.00
C 339.83 483.33 339.32 483.80 339.00 484.00
C 336.35 488.17 333.17 493.19 329.75 496.75 C 326.32 500.31 322.19 504.57 318.75 507.75 C 315.32 510.94 309.46 514.71 306.30 517.30 C 303.15 519.89 294.22 525.02 297.00 526.00
C 298.24 525.84 298.36 526.83 299.00 527.00
C 303.73 528.22 311.49 527.18 316.00 526.00
C 316.25 525.75 316.65 525.13 317.00 525.00
C 354.90 510.70 380.96 485.06 414.25 461.25 C 447.54 437.44 473.67 396.18 461.00 354.00
C 466.61 381.80 458.58 418.21 437.25 438.25 C 415.92 458.29 398.86 474.35 375.23 489.23 C 351.60 504.11 328.68 525.14 300.00 525.00
C 316.22 512.72 328.32 500.06 341.23 483.23 C 354.14 466.40 348.46 435.65 324.67 433.33 C 300.88 431.01 284.33 422.82 274.00 402.00
C 282.88 399.85 286.25 398.30 291.25 390.25 C 296.24 382.19 291.33 374.49 280.00 378.00
C 280.11 378.54 281.69 379.94 282.00 380.00 Z"/>
</g>
<g fill="#064D5B" fill-opacity="1.00" stroke="None">
<path d="
M 189.00 359.00 
C 195.44 390.12 213.22 415.10 236.75 437.25 C 260.28 459.40 286.01 470.50 313.00 486.00
C 314.18 484.26 299.63 478.64 295.75 476.25 C 291.86 473.87 282.94 469.04 278.08 465.92 C 273.22 462.81 266.09 458.90 261.08 454.92 C 256.07 450.94 249.72 446.66 244.75 442.25 C 239.79 437.83 235.04 433.61 230.25 428.75 C 225.46 423.90 220.99 419.53 216.75 414.25 C 212.52 408.97 208.01 403.17 204.77 397.23 C 201.53 391.29 198.03 384.48 195.78 378.22 C 193.52 371.97 190.51 362.88 189.00 359.00 Z"/>
</g>
<g fill="#054C5A" fill-opacity="1.00" stroke="None">
<path d="
M 313.00 487.00 
C 307.02 499.21 294.93 500.19 285.70 509.70 C 276.47 519.21 263.65 507.92 254.08 501.92 C 244.51 495.91 233.71 489.45 224.23 482.77 C 214.75 476.09 204.40 469.00 195.25 461.75 C 186.09 454.50 176.36 447.14 167.75 439.25 C 159.14 431.35 150.65 424.01 142.75 415.25 C 134.86 406.49 126.84 397.54 119.92 388.08 C 113.00 378.62 106.19 369.00 100.00 359.00
C 101.96 364.27 106.25 371.56 110.70 377.30 C 115.14 383.05 119.37 389.43 123.75 395.25 C 128.14 401.07 133.34 406.26 138.25 411.75 C 143.15 417.25 147.88 422.50 153.25 427.75 C 158.62 433.01 164.30 437.20 169.75 442.25 C 175.20 447.30 180.91 451.85 186.75 456.25 C 192.59 460.64 197.90 465.90 203.92 470.08 C 209.93 474.26 216.16 478.71 222.25 482.75 C 228.35 486.78 234.63 491.53 240.77 495.23 C 246.91 498.93 253.99 503.60 259.92 507.08 C 265.85 510.56 274.45 517.50 280.30 514.30 C 286.16 511.10 294.92 505.34 298.92 501.92 C 302.91 498.50 315.31 490.71 313.00 487.00 Z"/>
</g>
<g fill="#8A9683" fill-opacity="1.00" stroke="None">
<path d="
M 273.00 375.00 
C 274.64 371.69 280.58 368.26 283.00 365.00
C 280.27 368.13 274.65 370.87 273.00 375.00 Z"/>
</g>
<g fill="#003945" fill-opacity="1.00" stroke="None">
<path d="
M 98.00 391.00 
C 95.94 387.60 93.43 384.99 91.00 382.00
C 93.13 385.30 95.69 387.99 98.00 391.00 Z"/>
</g>
<g fill="#E6D09D" fill-opacity="1.00" stroke="None">
<path d="
M 353.00 386.00 
C 341.77 384.91 333.07 391.27 344.00 396.00 C 354.93 400.73 361.28 392.93 370.98 399.02 C 380.67 405.12 388.20 393.82 378.22 390.78 C 368.24 387.73 362.62 386.93 353.00 386.00
M 363.00 389.00 
C 363.50 388.97 364.53 388.89 365.00 389.00
C 369.87 390.14 377.64 388.53 381.23 393.77 C 384.82 399.01 374.66 399.88 369.93 397.07 C 365.20 394.27 355.53 395.47 350.00 395.00
C 348.67 394.89 347.77 394.16 347.00 394.00
C 346.25 393.84 334.33 394.27 339.78 389.78 C 345.24 385.28 355.86 389.45 363.00 389.00 Z"/>
</g>
<g fill="#0E4961" fill-opacity="1.00" stroke="None">
<path d="
M 347.00 394.00 
C 346.70 393.81 339.21 393.44 341.00 389.00
C 348.43 387.59 356.41 391.88 363.00 389.00
C 355.86 389.45 345.24 385.28 339.78 389.78 C 334.33 394.27 346.25 393.84 347.00 394.00 Z"/>
</g>
<g fill="#0A616B" fill-opacity="1.00" stroke="None">
<path d="
M 347.00 394.00 
C 347.77 394.16 348.67 394.89 350.00 395.00
C 353.25 394.83 364.59 393.19 367.67 395.33 C 370.76 397.47 383.44 398.14 380.21 394.77 C 376.99 391.40 368.23 391.98 365.00 389.00
C 364.53 388.89 363.50 388.97 363.00 389.00
C 356.41 391.88 348.43 387.59 341.00 389.00
C 339.21 393.44 346.70 393.81 347.00 394.00 Z"/>
</g>
<g fill="#124C64" fill-opacity="1.00" stroke="None">
<path d="
M 350.00 395.00 
C 355.53 395.47 365.20 394.27 369.93 397.07 C 374.66 399.88 384.82 399.01 381.23 393.77 C 377.64 388.53 369.87 390.14 365.00 389.00
C 368.23 391.98 376.99 391.40 380.21 394.77 C 383.44 398.14 370.76 397.47 367.67 395.33 C 364.59 393.19 353.25 394.83 350.00 395.00 Z"/>
</g>
<g fill="#134B62" fill-opacity="1.00" stroke="None">
<path d="
M 340.00 483.00 
C 346.48 470.49 352.03 451.09 338.75 441.25 C 325.46 431.42 309.53 434.96 296.70 427.31 C 283.86 419.65 274.69 412.03 270.00 398.00
C 266.41 401.49 275.86 411.70 279.25 415.75 C 282.63 419.80 288.98 424.98 294.92 428.08 C 300.87 431.17 309.46 434.57 316.98 435.02 C 324.50 435.48 331.03 437.88 337.75 442.25 C 344.48 446.62 346.01 455.68 345.99 462.99 C 345.97 470.30 338.84 477.42 340.00 483.00 Z"/>
</g>
<g fill="#EFD8A0" fill-opacity="1.00" stroke="None">
<path d="
M 340.00 400.00 
C 330.30 398.76 331.58 411.02 340.32 411.68 C 349.06 412.34 349.69 419.33 358.78 421.22 C 367.86 423.11 366.01 411.40 358.08 409.92 C 350.15 408.44 347.29 400.93 340.00 400.00
M 340.00 402.00 
C 346.23 402.61 349.87 409.60 356.25 410.75 C 362.62 411.90 367.31 420.64 359.77 420.21 C 352.23 419.78 350.27 411.81 343.32 411.68 C 336.37 411.55 329.82 401.01 340.00 402.00 Z"/>
</g>
<g fill="#1A4E64" fill-opacity="1.00" stroke="None">
<path d="
M 340.00 402.00 
C 329.82 401.01 336.37 411.55 343.32 411.68 C 350.27 411.81 352.23 419.78 359.77 420.21 C 367.31 420.64 362.62 411.90 356.25 410.75 C 349.87 409.60 346.23 402.61 340.00 402.00
M 336.00 407.00 
C 339.29 399.21 345.68 407.67 353.08 409.92 C 360.47 412.18 365.24 421.62 355.75 416.25 C 346.27 410.88 345.15 410.80 336.00 407.00 Z"/>
</g>
<g fill="#09616B" fill-opacity="1.00" stroke="None">
<path d="
M 336.00 407.00 
C 345.15 410.80 346.27 410.88 355.75 416.25 C 365.24 421.62 360.47 412.18 353.08 409.92 C 345.68 407.67 339.29 399.21 336.00 407.00 Z"/>
</g>
<g fill="#013747" fill-opacity="1.00" stroke="None">
<path d="
M 487.00 413.00 
C 489.22 410.30 491.92 408.04 494.00 405.00
C 491.61 407.75 488.98 409.74 487.00 413.00 Z"/>
</g>
<g fill="#003440" fill-opacity="1.00" stroke="None">
<path d="
M 164.00 462.00 
C 157.72 453.00 147.06 447.55 139.75 439.25 C 132.45 430.95 124.71 423.71 117.00 416.00
C 123.82 423.98 131.56 433.46 139.75 440.25 C 147.95 447.03 154.57 457.39 164.00 462.00 Z"/>
</g>
<g fill="#003745" fill-opacity="1.00" stroke="None">
<path d="
M 438.00 466.00 
C 454.40 451.99 469.22 435.13 483.00 419.00
C 468.01 433.99 453.34 450.66 438.00 466.00 Z"/>
</g>
<g fill="#013847" fill-opacity="1.00" stroke="None">
<path d="
M 175.00 471.00 
C 171.73 467.73 168.71 464.84 165.00 462.00
C 167.64 465.78 171.53 468.03 175.00 471.00 Z"/>
</g>
<g fill="#003441" fill-opacity="1.00" stroke="None">
<path d="
M 418.00 483.00 
C 421.38 480.11 424.62 476.83 428.00 474.00
C 424.25 476.68 421.25 479.75 418.00 483.00 Z"/>
</g>
<g fill="#154C62" fill-opacity="1.00" stroke="None">
<path d="
M 297.00 526.00 
C 294.22 525.02 303.15 519.89 306.30 517.30 C 309.46 514.71 315.32 510.94 318.75 507.75 C 322.19 504.57 326.32 500.31 329.75 496.75 C 333.17 493.19 336.35 488.17 339.00 484.00
C 325.99 498.72 312.05 514.99 294.00 523.00
C 293.43 527.15 294.74 526.30 297.00 526.00 Z"/>
</g>
<g fill="#003743" fill-opacity="1.00" stroke="None">
<path d="
M 228.00 509.00 
C 224.55 506.33 221.02 503.26 217.00 501.00
C 220.62 503.59 224.04 506.55 228.00 509.00 Z"/>
</g>
<g fill="#044760" fill-opacity="1.00" stroke="None">
<path d="
M 299.00 527.00 
C 300.23 528.61 312.82 529.25 316.00 526.00
C 311.49 527.18 303.73 528.22 299.00 527.00 Z"/>
</g>
<g fill="#003C48" fill-opacity="1.00" stroke="None">
<path d="
M 286.00 542.00 
C 280.69 538.91 274.88 535.54 269.00 533.00
C 274.46 535.98 280.05 539.43 286.00 542.00 Z"/>
</g>
</svg>